/* XPM */
static char *_53b320126634f1afcc8187bde1a3598gebritp4nWBdDHmZ[] = {
/* columns rows colors chars-per-pixel */
"384 32 14 1 ",
"  c None",
". c #141412",
"X c #252716",
"o c #331E32",
"O c #373A20",
"+ c #47280D",
"@ c #5F5625",
"# c #1C3845",
"$ c #5F2E5C",
"% c #B56C30",
"& c #928230",
"* c #F09A53",
"= c #932D8B",
"- c #0C98D6",
/* pixels */
"                                                                                                                                                                                                                                                                                                                                                                                                ",
"                                                                                                                                                                                                                                                                                                                                                                                                ",
"                              XXXXXXX                                                                                                                                                                                                                                                                                                                                                           ",
"                            XX@&&&&@@.                                                                                                                                                                                                                                                                                                                                                          ",
"                           X@&&&&&&&&@.                                                                                                                                                                                                                                                                                                                                                         ",
"                          .@@&&&&&&&&&@.                                                                                                                                                                                                                                                                                                                                                        ",
"                         .OOO@&&&@..@&&.                                                                                                                                                                                                                                                                                                                                                        ",
"                         .OOOO@&.....@&.                                                                                                                                                                                                                                                                                                                                                        ",
"                        .OOOOO&.......&.                                                                                                                                                                                                                                                                                                                                                        ",
"                        .OOOO@&.......&.                                                          XXXX                                                                   .....                                                                                                                                                                                                                  ",
"                       .OOOOO&...-..-.@.                                                       XXX&&&&..                                                              ...@&&&@XX                                                                                                                                                                                                                ",
"                       .O@@@O&o..#..#.@.                                                      X@&&&&&&&@.                                                           ..OOOO&&&&&@X                                                                                                                                                                                                               ",
"                       ..O@@@&o.......O.                                                     .@@&&&&&&&&&.                                                         .OOOOO@&&&&&&@X                                                                                                                                                                                                              ",
"                        ...OO@o$o.....o.                                                    .OOO@&&&@..@&&.                                                       ..OOOOO&&&&&&&&X                                                                                                                                                                                                              ",
"                        .OOOO@@$$$====$.                                                    .OOOO@&.....@&.                                                      .O@OOOO&&..@@&&&@.                                                                                                                                                                                                             ",
"                        X&&&OO@&$$====$..                                                  .OOOOO&.......&.                                                      .O@@OO@&......@&&.                                                                                                                                                                                                             ",
"                       X&&&&&@O&&&&@@&&..                                                  .OOOO@&.......&.                                                      ..O@@O&@.......&&.                                                                                                                                                                                                             ",
"                       X&&&&&@@@&&&&&&&..                                                 .O@@@O&o..#..#.@.                                                      ...@@&&........@&.                                                         .....                                                                                                                                               ",
"                       X@&&&@OOO&&&&&&&..                                                 ..O@@@&o.......O.                                                    XX@OOOO&o........&.                                                         .OOOOO...                                                                                                                                            ",
"                        XXXX.OOO@&&&&&@.                                                   ...OO@o$o.....o.                                                    X&&&@O@@o........&.                                                    XXXX.O@OOOOOOOXX                                                                                                                                          ",
"                          ...OOOO......                                                    .OOOO@@$$$====$.                                                   X&&&&&OO@oo......@.                                                    X&&&@..@OOOOOOO@&X                                                                                                                                         ",
"                           ++%+%%%**%%.                                                    X&&&OO@&$$====$..                                                  X&&&&&@@@&$$.....@.                                                   X&&&&&O.@@OOOOO@&&&X                                                                                                                      ......            ",
"                           ++%+%%****%.                                                   X&&&&&@O&&&&@@&&..                                                  XX@&&@@O&&$==$..o.                                                    X&&&&&@O@@@&&&&&&&&@X                                                                                                                XXXX..O@OOO..          ",
"                          X@@@@@@@**%OO.                                                  X@&&&@OOO&&&&&&&..                                                    XX.OO@&&&@====$.                                                    .X&&&@OOO&&@..@&&&&@X                                                XXX  ......                                                    X@&&@O.@@OOOOO.         ",
"                          X&&&&&&@..@@@.                                                   XXXX.OOO@&&&&&@.                                                     ...OO@&&&&@==$.                                                    ....@@@OO@o......@&&&X                                               X@&&X..O@OOO..                                                 .X&&&&OO@@OOOOO@X        ",
"                         X@&&&&&&O..@@@@.                                                    ...OOOO......                                                     .++OOO@&&&&&&&&.                                                    ++.OO@@@@oo.......&&&@                                               X&&&&O.@@OOOOO.                                              ...X&&&&OO@OOOOOO@@X       ",
"                         X&&&&&&O...@@@@.                                                     ++%+%%%**%%.                                                    .@++%%OO.&&&&&&.                                                   ..++OOO@@&&o........@&&@                                            ...X&&&&OO@@OOOOO@X                                           ......@&&OO@&&&@OO@&&X       ",
"                        ..&&&&&&. ...@@@.                                                     ++%+%%****%.                                                   .@@@@%%%**%.&&&.                                                  ..@@+%%O@@&&$$.........&&X                                       .....++.X&&&&OO@OOOO@@@@X                                      ....+%%OOOO@@O@ooo@&&@&&&@X      ",
"                        .........  ......                                                .....@@@@@@@**%OO.                                                 .@&&&@@@+****...                                                 ..&&@@@%%O@&&&$=.........&@X                                     ..@&&&@++..@&&OO@&&&@&&&&&X                                    ..&&@@@%%OOOO@&&$$....O&&&&&X      ",
"                        .%%%..      .+++.                                              .*+%.X@&&&&&&O..@@@@.                                             ...X&&&&&&&O.%**%.                                              ....&&&&&&&O**.&&&@=$.......&&.                                  ....@&&&&&O%%O@@@@$$o....O@&&&@X                               ....&&&&&&&O**O@&&&$$o.....@&&&&X      ",
"                       ..+++.       ......                                             .*+%.X&&&&&&O...@@@@.                                            .*%.X&&&&&&@..@@@@.                                             .*%.X&&&&&&@.**@&&&@==......&&.                                 .*%.X@&&&&&@.%%.&&&&$$.......@&&&X                              .*%.X&&&&&&@.**.&&&&$$.......@&&&X      ",
"                       .***..       .+%%%.                                             .*....&&&&&&.....@@@.                                           .**%..&&&&&@...@@@@.                                            .**%..&&&&&@...%%@&&&$==..@@&..                                 .**%..&&&&&@..+%.&&&&==.......O&&&X                             .**%..&&&&&@...%.&&&&==........&&&X      "
};
