/* XPM */
static char *bfbec842c7bd4bb2ff36d4a9a4a4e3f7lBlTeicjBrzYwCfa[] = {
/* columns rows colors chars-per-pixel */
"128 32 14 1 ",
"  c None",
". c #141412",
"X c #252716",
"o c #331E32",
"O c #373A20",
"+ c #47280D",
"@ c #5F5625",
"# c #1C3845",
"$ c #5F2E5C",
"% c #B56C30",
"& c #928230",
"* c #F09A53",
"= c #932D8B",
"- c #0C98D6",
/* pixels */
"                                                                                                                                ",
"                                                                                                                                ",
"              XXXXXXX                                                                                                           ",
"            XX@&&&&@@.                                                                                        XXXXXXX           ",
"           X@&&&&&&&&@.                       XXXXXXX                         XXXXXXX                       XX@&&&&@@.          ",
"          .@@&&&&&&&&&@.                    XX@&&&&@@.                      XX@&&&&@@.                     X@&&&&&&&&@.         ",
"         .OOO@&&&@..@&&.                   X@&&&&&&&&@.                    X@&&&&&&&&@.                   .@@&&&&&&&&&@.        ",
"         .OOOO@&.....@&.                  .@@&&&&&&&&&@.                  .@@&&&&&&&&&@.                 .OOO@&&&@..@&&.        ",
"        .OOOOO&.......&.                 .OOO@&&&@..@&&.                 .OOO&&&&&&&&&@.                 .OOOO@&.....@&.        ",
"        .OOOO@&.......&.                 .OOOO@&.....@&.                 .OOO@&&&@..@&&.                .OOOOO&.......&.        ",
"       .OOOOO&...-..-.@.                .OOOOO&.......&.                .OOOOO@&.....@&.                .OOOO@&.......&.        ",
"       .O@@@O&o..#..#.@.                .OOOO@&.......&.                .OOOOO&.......&.               .OOOOO&...-..-.@.        ",
"       ..O@@@&o.......O.               .OOOOO&...-..-.@.               .OOOOO@&.......&.               .O@@@O&o..#..#.@.        ",
"        ...OO@o$o.....o.               .O@@@O&o..#..#.@.               .O@@@O&o..-..-.@.               ..O@@@&o.......O.        ",
"        .OOOO@@$$$====$.               ..O@@@&o.......O.               ..O@@@&o..#..#.O.                ...OO@o$o.....o.        ",
"        X&&&OO@&$$====$..               ...OO@o$o.....o.                ...OO@o$o.....o.                .OOOO@@$$$====$.        ",
"       X&&&&&@@&&&&@@&&..               .OOOO@@$$$====$.                .OOOO@@$$$====$.                X&&&OO@&$$====$..       ",
"       X&&&&&@@@&&&&&&&..               X&&&OO@&$$====$..               X&&&OO@&$$====$..              X&&&&&@@&&&&@@&&..       ",
"       X@&&&@OOO&&&&&&&..              X&&&&&@@&&&&@@&&..              X&&&&&@@&&&&@@&&..              X&&&&&@@@&&&&&&&..       ",
"        XXXX.OOO@&&&&&@.               X@&&&@O@@&&&&&&&..              X&&&&&O@@&&&&&&&..              X@&&&@OOO&&&&&&&..       ",
"          ...OOOO......                 XXXX.OOO@&&&&&@.                X&&&@OOO@&&&&&@.                XXXX.OOO@&&&&&@.        ",
"           ++%+%%%**%%.                   ...OOOO......                  ....OOOO......                   ...OOOO......         ",
"           ++%+%%****%.                    ++%+%%%**%%.                    ++%+%%%**%%.                    ++%+%%%**%%.         ",
"          X@@@@@@@**%OO.                   ++%+%%****%.                    ++%+%%****%.                    ++%+%%****%.         ",
"          X&&&&&&@..@@@.                  X@@@@@@@**%OO.                  X@@@@@@@**%OO.                  X@@@@@@@**%OO.        ",
"         X@&&&&&&O..@@@@.                 X&&&&&&@..@@@.                  X&&&&&&@..@@@.                  X&&&&&&@..@@@.        ",
"         X&&&&&&O...@@@@.                X@&&&&&&O..@@@@.                X@&&&&&&O..@@@@.                X@&&&&&&O..@@@@.       ",
"        ..&&&&&&. ...@@@.                X&&&&&&O...@@@@.                X&&&&&&O...@@@@.                X&&&&&&O...@@@@.       ",
"        .........  ......               ......... .......               ..&&&&&&. ...@@@.               ..&&&&&&. ...@@@.       ",
"        .%%%..      .+++.               .%%%.....   .+++.               .%%%.....   .+++.               .%%%.....   .+++.       ",
"       ..+++.       ......             ..+++.       ......             ..+++.       ......             ..+++.       ......      ",
"       .***..       .+%%%.             .***..       .+%%%.             .***..       .+%%%.             .***..       .+%%%.      "
};
