/* XPM */
static char *f320a9a663664efdad56acb720b87914XRKuuVj6ZRh8feFn[] = {
/* columns rows colors chars-per-pixel */
"48 49 4 1 ",
"  c #1A2228",
". c #A3480F",
"X c #D86722",
"o c #E6CA15",
/* pixels */
"                                                ",
"                                                ",
"                                                ",
"                   XX                           ",
"                  XXX.                          ",
"                 XXoo.                          ",
"                 XXoo                           ",
"                  ...                           ",
"                                                ",
"                                                ",
"                                                ",
"                         XXX                    ",
"                        XXXX.                   ",
"                        XXoo..                  ",
"                         XX..                   ",
"                          ..                    ",
"                                                ",
"                                                ",
"                 XX     XX                      ",
"           XX   XXXX   XXo..            XX      ",
"           XX  XXooXX    ..            XXo..    ",
"               XXooXX                    ..     ",
"                X...        XX                  ",
"   ..            ..  XX    XXX.                 ",
"   ..                XX   XXoo.                 ",
"                          XXoo      XX          ",
"                           ...     XXXX         ",
"          XX       XXX            XXooXX        ",
"         XXX.     XXXX.           XXooXX        ",
"        XXoo.     XXoo..   ..      X...         ",
"        XXoo       XX..    ..       ..          ",
"         ...        ..                          ",
"                                                ",
"                                                ",
"                                                ",
"                                                ",
"                                                ",
"                                                ",
"                  XX                            ",
"                 XXo..                          ",
"                   ..                           ",
"                                                ",
"                          XX                    ",
"                          XX                    ",
"                                                ",
"                                                ",
"                                                ",
"                                                ",
"                                                "
};
