/* XPM */
static char *_96df974d8b14d06e89e964332e196dbkfzhgTOrJwflb49a[] = {
/* columns rows colors chars-per-pixel */
"48 60 11 1 ",
"  c #306D05",
". c #317105",
"X c #337504",
"o c #337803",
"O c #357B05",
"+ c #176B2D",
"@ c #196F30",
"# c #1A7231",
"$ c #1B7735",
"% c #1D7C37",
"& c #1E7F38",
/* pixels */
"oooo.OOOO  XXXXXoooo.OOOO  XooXXoooo.OOOO  XXXXX",
".ooooOOO..XXXXXX.ooooOOO..XXXXXX.ooooOOO..XXXXXX",
"..ooooo.OOOO XXX..ooooo.OOOO@XXX..ooooo.OOOO XXX",
"ooXoooXooOO  XXoooXoooXooOO@@@X#ooXoooXooOO  XXo",
"oooXoXoooo..XX##oooXo@oooo@@@###oooXoXoooo..XXX.",
".oooXXXXX..XXXX##ooo@@@@oooo#####oooXXXXX..XXXXX",
"XXXXXXXXXXOOOO#####@@@#oooo########XXXXXXXOOOO.X",
"XXXXXXXXXoOOO###$$$$$@####@@######XXXXXXXoOOO  X",
"XXXXOOOOXooo##@@$$$$@@#$XXXX####$$##OOOOXooo..XX",
"XXX..OOOooooooo$$$oooo$XXXX###@#$$#..OOOooooooo.",
"XXXX..Oooo@ooo$$$$#ooooXXX ooo@#$$$#..OoooXooo..",
"oXXooo.oo@@oo@@%%###oooXX ooo##%%$$ooo.ooXXoo.oo",
"..X.ooo@o@#o##%%##$$#ooX#ooo###%####oooXoXXoXooo",
".XXXXooo@##$%%%##$$$$$o###@@@#%##$$##oooXXXXooo.",
"XXXX##@@@##$$$%%$$$$$$$###$$$$%%$$$$##XXXXXXXXoo",
" XXXX#####XXX%%##$$##$&&&&@$$%%###$XX$$XOO XXoo.",
"XXXX#####XXX##$$%%%%#&&&&@@$$$$$####XX$OO  XXXXX",
"XXX@@#...XX#XX$$#%%%%&&&##$$$$$$$####X#O@.XXXXXX",
"oX@@###..X#XX#$$##%%%%%#&&&&@$$$$$$$#@@@@ooo XXX",
"Xoooo###.##X##$%%%$%%%$%%&&@@$$%%$$$###@ooo  XXo",
"oooo  #######$$#%%%$%$%%%%##$$$#%%$$%###oo..XXX.",
"Xoo  #oooo#$$$$$#%%%$$$$$##$$$$$#%####o#o..XXXXX",
"XXXXXoooo###@$$$$$$$$$$$$$&&&&#$$$$#@@o@@@OOOO.X",
"XoooXooo ####@##$$$$$$$$$%&&&@@$$$@@@##@@oOOO  X",
"  ooooo.OOOO##$#$$$$&&&&$%%%##$$$@#OOOO@oooo..XX",
"X  ooo.ooOO##$@#$$$##&&&%%%%%%%#$$##OOOoooooooo.",
"XX..o@oooo##$@@#$$$$##&%%%$%%%##$$$##OooooXooo..",
"oXX@@@@@ooo#@##%%$$%%%#%%$$%%#%%%$%%@@oooXXoo.oo",
"X    @#ooo####%%##$#%%%$%$$%$%%%##$%XXXoXXXoXooo",
"    @@#####$#%%##$$$$%%%$$$$%%%##$$$#XXXXXXXooo.",
"   @@######$$$%%$$$$$$$$$$$$$$%%$$$$##XXXXXXXXoo",
".XX..XOOOO@$$%%#$$$$$$$#$$$$$####$$###OOOO XXoo.",
"oooo.OOOO@@#$$$$$$#@@######$##$$%%###OOOO  XXXXX",
".ooooOOO##$##$$$$oooo$$$#$#######oooXOOO..XXXXXX",
"..ooooo.OOOO@$$$$#oooo$##$$####$##ooooo.OOOO XXX",
"ooXoooXooOO@@%$%%##ooo@ooo###$$%OOOoooXooOO  XXo",
"oooXoXoooo##%@@#%%# ooooo##$$$$#%OOOoXoooo..XXX.",
".oooXXXXX##%@####ooo ooo@@#$$$$$##OOXXXXX..XXXXX",
"XXXXXXXXXXOOOO#$$$ooo#o@@@OOOO#$OOOOXXXXXXOOOO.X",
"XXXXXXXXXoOOO@@#$$#@@@##@oOOO####OOXXXXXXoOOO  X",
"XXXXOOOOXooo##@@$$$$OOOO#ooo##%#$#OXOOOOXooo..XX",
"XXX..OOOooooooo#$$#..OOOooooooo#$XX..OOOooooooo.",
"XXXX..OoooXooo######..OoooXooo##XXXX..OoooXooo..",
"oXXooo.ooXXoo.oo.##ooo.ooXXooOOOoXXooo.ooXXoo.oo",
"..X.oooXoXXoXooo.XX.oooXoXooOOOX..X.oooXoXXoXooo",
".XXXXoooXXXXooo.XXXXXoooXXXOOOXX.XXXXoooXXXXooo.",
"XXXXXXXXXXXXXXooXXXXXXXXXXXXXXooXXXXXXXXXXXXXXoo",
"##$$$$$$$$$$$%%#$$$$$$$#$$$$$####$$##$&&&&@$$%%#",
"###$$$$$OOOO$$$$$$#@@######$##$$%%%%#&&&&@@$$$$$",
"$#oooo&OOOO##$$$$oooo$$$#$#######%%%%&&&##$$$$$$",
"$$$oooooOO XXX$$$#oooo$##$$#######%%%%%#&&&&@$$$",
"%$##ooooo XXX##%%##ooo@ooo###$#%%%$%%%$%%%%#@$$%",
"%%$##ooo@XXX##@#%%# ooooo##$$$$#%%%$%$%%%%###$$#",
"$%##@@o@@@@######ooo ooo++#$$$$$#%%%$$$$$####$##",
"$$$#####@@OOOO#$$$ooo#o++@OOOO#$$$$$$$$$#######$",
"$$@@@##@@oOOO###$$#@@@##@oOOO++####$$$$$$#####@$",
"$$#OOOO@oooo##@@$$$$OOOO#ooo++####$$&&&&$%####$$",
"$$##OOOoooooooo#$$#..OOOooooooo##$$##&&&%%%#%%%#",
"$$$##OooooXooo######..OoooXooo++######&%%%$%%%##",
"%$%%++oooXXoo.oo.##ooo.ooXXooOOOXX#####%%$$%%#%%"
};
