/* XPM */
static char *_83dd8f29e7047dac4868e7781688afehAlaiUFzLfhZttTy[] = {
/* columns rows colors chars-per-pixel */
"30 46 13 1 ",
"  c #141412",
". c #161B13",
"X c #191C1E",
"o c #1C2518",
"O c #1F2A1C",
"+ c #232E20",
"@ c #24282C",
"# c #283325",
"$ c #2B3037",
"% c #343C45",
"& c #394554",
"* c #56687E",
"= c #607897",
/* pixels */
"                              ",
"                              ",
"                              ",
"                              ",
"                              ",
"XXXXXX                   XXXXX",
"XXXXXX                   XXXXX",
"XXXXX**                  XXXXX",
"XXXXX**                  XXXXX",
"    ***                       ",
"==****$                  =====",
"==***$$                  =====",
"&&%%%$                =====$&&",
"&&%%%                ======$&&",
"$$$                  ==$&&&$$$",
"                     ==$&&&   ",
"XX                   $$$$$$ XX",
"XXX                  $$    XXX",
"                     $$       ",
" XX                        XX ",
" XX                        XX ",
" XX                        XX ",
"                              ",
"XXXX                      XXXX",
"XXXX                      XXXX",
"XXXX                      XXXX",
"                              ",
" XX                        XX ",
" XX                        XX ",
" XX     ..                 XX ",
"       ..                     ",
"XX...  . ...             ...XX",
"XXo..   ...              ..oXX",
"XXo.OOO ..             OOO.oXX",
"  oOOO                  OOOo  ",
"OOoOO.                  .OOoOO",
" OOO.ooo  ...    ...  ooo.OOO ",
" XOoooo. ...      ... .ooooOX ",
"  oooo..... ..  ..oo....oooo  ",
"@@ooo+++...+++ oo..oo.oOOooo@@",
"OOOoOO+++.+++.  oo.OoOOOOooOOO",
" OOOoOO++O++ooooooOOOO++ooOOO ",
"  OOOOOOOOOOOOooOOO###O++     ",
" +++O+O###OO###ooOOO###O+OO   ",
"XX++++###OO###ooo###+##+OO+++X",
" OO+++##OO+##O++OO###+#+O+++  "
};
