/* XPM */
static char *e661dec869e74dc0f71a1b717690adb0dZJ4TSNpXagDvCrB[] = {
/* columns rows colors chars-per-pixel */
"23 36 14 1 ",
"  c #141412",
". c #252716",
"X c #331E32",
"o c #1A2227",
"O c #373A20",
"+ c #47280D",
"@ c #5F5625",
"# c #1C3845",
"$ c #5F2E5C",
"% c #B56C30",
"& c #928230",
"* c #F09A53",
"= c #932D8B",
"- c #0C98D6",
/* pixels */
"ooooooooooooooooooooooo",
"ooooooooooooooooooooooo",
"ooooooooooooooooooooooo",
"oooooooooo.......oooooo",
"oooooooo..@&&&&@@ ooooo",
"ooooooo.@&&&&&&&&@ oooo",
"oooooo @@&&&&&&&&&@ ooo",
"ooooo OOO@&&&@  @&& ooo",
"ooooo OOOO@&     @& ooo",
"oooo OOOOO&       & ooo",
"oooo OOOO@&       & ooo",
"ooo OOOOO&   -  - @ ooo",
"ooo O@@@O&X  #  # @ ooo",
"ooo  O@@@&X       O ooo",
"oooo   OO@X$X     X ooo",
"oooo OOOO@@$$$====$ ooo",
"oooo.&&&OO@&$$====$  oo",
"ooo.&&&&&@@&&&&@@&&  oo",
"ooo.&&&&&@@@&&&&&&&  oo",
"ooo.@&&&@OOO&&&&&&&  oo",
"oooo.... OOO@&&&&&@ ooo",
"oooooo   OOOO      oooo",
"ooooooo++%+%%%**%% oooo",
"ooooooo++%+%%****% oooo",
"oooooo.@@@@@@@**%OO ooo",
"oooooo.&&&&&&@  @@@ ooo",
"ooooo.@&&&&&&O  @@@@ oo",
"ooooo.&&&&&&O   @@@@ oo",
"oooo  &&&&&& o   @@@ oo",
"oooo         oo      oo",
"oooo %%%  oooooo +++ oo",
"ooo  +++ ooooooo      o",
"ooo ***  ooooooo +%%% o",
"ooooooooooooooooooooooo",
"ooooooooooooooooooooooo",
"ooooooooooooooooooooooo"
};
