/* XPM */
static char *_68b617dcaed45aba6505318067ec041VFv7nNi548ntTI96[] = {
/* columns rows colors chars-per-pixel */
"61 123 13 1 ",
"  c #1A2227",
". c #1A2228",
"X c #4B3421",
"o c #13461A",
"O c #12561C",
"+ c #10671C",
"@ c #3D7F13",
"# c #64462D",
"$ c #88603F",
"% c #AA784F",
"& c #529E14",
"* c #72B516",
"= c #CE8E59",
/* pixels */
".......................**.*****..............................",
"......................**********.............................",
"...................**.**********.&&...OO.....................",
"..................*************&&&&&&@@OO.OO.................",
".................&&************&&&&&&&@@OOOO.................",
"...............&&&&**************&&&&&@@OOOO.................",
"..............&&&&&&*************&&@@@@OOOO..................",
"............**&**&&&*********&**&&&&@@@+O++OO................",
"............******&&&**&*****&&&&@&&@@@@@+++O++..............",
".............*****&&&&&&******&&&@@@@@@@@+++++++.............",
"............*****&&**&&&&&******@@@@@@@@++++++++.............",
"..........*******&*****&&*******@&&@@&&@&&+++++++............",
"..........******&&*****&*******&&&&@&&&&&&&@+++++............",
"...........******&&***********&&&&&&&&&&&&&&++++.............",
"..........**********************&&&&&&&&&&&&++++++...........",
"..........**********************&&&&&&&@&&&@@@++++...........",
".........******&&**************&&&&&&&@@@@@@@@+++............",
".........*****&&*****************&&@@@@&&@&&@+++++...........",
"........&&*****&*****************&&&@@&&&&&&@@+@@+@@.........",
".....&&.&&**&**&&***********&***&&&&@@&&&&&&&@@@@@@@.........",
"....&&&&&&&&&&&&&$*******&**&&&&&&&@@@@&&&&&&@&&@&&@@........",
"....&&&&&&&&&***&$@**@***&&&&&&&&&&@&&&&&&&&@@&&&&&@@O.......",
".....&&&**&******$$@@@**@&&&&&&&&&&@&&&&&&&&&&&&&&@@OOoo.....",
"..&&&**&*********@$@@@@@@@&&&&&&&&&&&&&&&&&&&&&&&&@+OOooo....",
"..&&***&&*******&&$$&@@@&&&&&&&&&&&&&&&&&&&&&&&&@@@@OOooo....",
"...&*************&&$&&@***&**&&&&&&&&&&&&***&&&&&&@@+OOoOO...",
"..&&&**************$$*********&&&&@&&&**&*****&&&&+++OOOOO...",
"..&&***************&$*********&&@@@@**********@&&+++OOOOO....",
"&.&&**&***********&&$&*******&&&&@@&*********&@+++++OOOOOO...",
"&&&&&&&*************$*******&&&&&@@*****&****@@@++++OOOOOOo.o",
"&&&&&&***********************&&&@@&*****&&****@@+++OOooOOoooo",
"&&&&&&*****&**&*******&&*****&&@@&&&&****&@***@@OOOOOOooooooo",
"&&&&&******&&&&&*******&&**+++++@&&&******@@@@@++OOOOOooooooo",
"&&&&&**&***&&&&*********&&$+++++@@&&********@@@@+OOOOoooooooo",
"@&&$&&&&**&&&&&*********&&$+++++&&&*********@@@@+OOOOOooooooo",
"@@@$&&&&&&&&&&&&&**&***&&$$++@@+&&&**&*****@@@@@@OXOOOooooooo",
"@@@$$&&&&&&&&&&&&&&&#@@++$++@@@@&&&&&&&@**@@@@+@@OXXoooooooXo",
"@@@@$$$@&&@++&&&&&&&##@+$$++@@@@&&&@&&@@@@@@+++++OoXXXoooooXo",
".@@@@@$$@++++&&&@&&@+#@$$@@++@@@@@@@@@@@+@@++++++OOooXXoooXXo",
".@@@@&&$&&@++@&&@++++#$$@@@@@@@@@@@@@@@++++++++++OOoooXXoXXoo",
"@@@@&&&&&&&@@@@++++@@#$@@@@@@@@@@@++@@@@+++++++OOooooooXXXooo",
"@@&&&&&&&&&@@&&@&&@@@$$@@@@@@@+@@+++X@@@+++O++OOooooooXXooooo",
"@@&&&&&&&&@@&&&&&&@&&$@@@@@@@@++++++XXOO+++OOOOOOooooXXoooooo",
"@@@&&&&&&@@&&&&&&&&&&$&&&@@+@@+++++++XO++++++OoOOoooXXooooooo",
"@@&&&&&&&&&&&&&&&&&&&&&&&@+++++++++++XX++++++OooooooXoooooooo",
"@&&&&**&**&&&&&&&&&&&&&&@@++@@@++O++ooXO++++OoooooooXoooooooo",
"@&&&&*****&&&&&&&&&&&&&&&@@@@@@+OOOoooXX++OOOooOOo++X++oooooo",
"&&**&&****&&&&&&&&&&&@&&&@@@@@OOOOOooooXXXOOOOOOO++++++oooooo",
"&****&&**&&&&&&&&@&&@++++@@@@+O++OOoOOoOOXXOOO++O+++++OOooooo",
"@***********&**&&@+++++@@@@@@@O+++OOOOoOOOXOO++++++++++OOOooo",
"***************&@@+@@+@@@@@+@@+++++OOooo@@XO++++++++O++OOOooo",
"**************&&&@@@@@@@@++++++++++OO@@o@@X+++++++++OOOOOoooo",
"****************&&@@**@**@++++@@++++O@@@@@@@+++++++++OOOOOooo",
"****************&**&******@+++@@@@++++@@@@@@++++++++++oOOOooo",
"***&**********************&+++@@@@+++@@@@@@+++++++++++ooooooo",
"**&&***********************@@++@@++++@@@@@@@+@@+++O++Ooooooo.",
"*@&************************@@@@@@@@++@@+@@@@@@@@++OOooooooo..",
"@@*******&****************@@@@@@@@@++++++@@@@@@@++OOOoooooo..",
"@&**&****&&**********&&**&@&&@@@@@+++++++@@@@@@@+++OOooooooo.",
"@&&&&***&&************&&&&&&&&@@@@@+@@@+@@@@@@@++++Oooooooooo",
"@@&&&&&&&&***&&********&&&&&&&@@@@@@@@@+@@@@@@@@+OOOOOooooooo",
"**&&&&**&&&**&*********&&@&&@++@@@@@@@+++@@@@@@@OOOOOOooooooo",
"****&***&&&&&&*****&**&&&@@@++@@@@@@@@@@O@@@@@@+OOXOOoooooooo",
"+******&&@@#@&&**&@@@@&&&&&@++@@@@@@@@@@O+@@+@@+OOXXoooooooo.",
"********&&&#&&&&&&&@@@@&&&&+++++@@@++@@+OOOO+++++OoXXoooooooo",
"**@@****&&&#&&&&&&&@&&@&&&@+&&@@@@@@+++OO++O+++++oooXXOOooooo",
"@@@&**&&&&@##@&&&&&&&&&&&&&&&&&@@@@@@++O++++++OooooOOXOOOoo..",
"@@&&&&&&&&&&#@&&@@&&&&&&&&&&&&&@@@@@@++++++++++ooooOOOOOOOooo",
"@@&&&&&&&&&&##@@@&&&&&&&&&&&&@@@@+@@+++++++OO++oooOOOOOOOOOoo",
"@@&&&&@&&&&@+#&&@&&&&&&&&&&&&&@@@+OOO+++++++OOooooOOOOOOOOOOo",
"&@@&&&@@+++++#&&&&&&&&&&&&&&&&@+OOO+++++++++OOoooooOOOOOOOOOo",
"&&&&&&@&&@+++&&&&&&&&&&&&@&&&++++++++O++O++OOOOoooOOOOOOOOooo",
"&&&&&&&&&&@@@&&@&&&&&&&&@@&&@+++++++OOOOOOOoOOooooOOXOOOOOOoo",
"&&&&&&&&&&@@@@@@@&&&&&&&@@@@@++++++OOOOOOOoooooooooXXoOOOOOOo",
"&&&&&&&&&@@@@@@@@@&&@&&@@@@@@@++++++OOOOOOoOOOoooooXXooOOOOOO",
"&&&+&&&&++@@@@@@@@@@@@@@@@@@@@++++++OOOOOOOOOOooooXXXoOOOOOOO",
"&&&++&&&&+@@@@+@@+@@@@@@@@@@@OOO++OOOOOOOOOOOoooooXXooOOXOOoo",
"&&&+&&&&&+++@@OOOO@@@@@@@+@@@OOOOOOOOOOOOOOOOOooooXXoooXXoooo",
"++++&&+&&+++OOOO+++@@@@++++OOOOOOOOOOOooOOOOOOoooXXXooXXooooo",
".+++OooO++++++OO+++@@@++OoooOOOOOOOOOOOXoOOOoooooXXooXXoooooo",
"++++++oo+++++++OO+++++OOooo++O++OOOOOOOXOOOOOooooXXXXXooooooo",
"++++++OO++OOXOOO+++++oOOoOO+++++++OOOooXOOoOOoooXXXXooooooooo",
".++.+OOOO+OOXXOO+++OoooooOO+++++++OooooXooooooooXXoooooooooo.",
"....OOOOOOOOOXXOOOoooooo++O++++++OOooooXXooooooXXXooo..oooooo",
".......OOOOOOOXOOOOoo++o++++++++++OoooooXXXoooXXXoooo.ooooooo",
"........OOOOooXXOO++O++++++++++++++oooooooXXXXXXXoooo.oo.ooo.",
"........OOOooooXXX+++++++++++++O+++ooooooXXXXXXXooo......oo..",
"............oo@@@X@++++++++++++OOOooooooXXXXXXoooooo.........",
".............+@@@@@+@@+++++++++OOooooo##XXXXoooooooo.........",
".............@@@@@@@@@@+++++++++ooooo$$##Xoooooooo...........",
".............@@@@@@@@@+++++++O++oooo$$$$#ooooo.oo............",
"...............@@.@@@@@+###++oooooo#$$$$ooooo................",
"..................@@@@@#####ooooooo$$$$$oooo.................",
"....................@@O######oooXX#$$$$$oooo.................",
"........................#######XXX#$$$$.oo...................",
"........................X######XXX###$$......................",
"........................X#$$##$#XX#####......................",
"........................X$$$#$$$XX####.......................",
"........................X$$$#$$$#X####.......................",
"........................#$$$#$$$#XX##X.......................",
"........................#$$$#$%%#XX##X.......................",
"........................#$$$#$$$#XX##X.......................",
"........................#$$$#$%%#XX##X.......................",
"........................#%%%#%%%$XXXXX.......................",
"........................#%%%$%%%$#X##X.......................",
"........................#%==$%%%$#XXXX.......................",
"........................#%%%%%%%$#XXXX.......................",
"........................#%==%%%%$#X##X.......................",
"........................#%%%%%%%$#XXXX.......................",
"........................#%==%%%%$#XXXX.......................",
".......................##===%==%$XXXXX.......................",
".......................##===%==%$XXXXX.......................",
"......................##%=======$XXXXXX......................",
".....................###%=======$XXXXXX......................",
"....................####========$XXXXXXX.....................",
".............      ####=========#XXXXXXXX....................",
"..............     ###%=========#X##XXXXXX...................",
"...............    ###=====%====%XXXXX##XX...................",
"................    #======$====%X##XX###X...................",
"             .......======%$=====###XX####       ............",
"             .......======$%=====###XXX###       ............",
"             .......%====%$======%###XX##        ............",
"             ........%%==$$======%###XX          ............"
};
