/* XPM */
static char *_9b599c6658d4e6dd25591f89e5273b0L0k8fjg7elqBa9KV[] = {
/* columns rows colors chars-per-pixel */
"32 32 206 2 ",
"   c #070C02",
".  c #1C0B03",
"X  c #1B0C0E",
"o  c #061408",
"O  c #1B1203",
"+  c #16140B",
"@  c #1B140B",
"#  c #141A0C",
"$  c #1E1B0E",
"%  c #171202",
"&  c #1E0D12",
"*  c #1A0C1C",
"=  c #1D1312",
"-  c #141C11",
";  c #1B1E13",
":  c #131017",
">  c #240D01",
",  c #2D0B01",
"<  c #230E0A",
"1  c #2C0C0B",
"2  c #270303",
"3  c #3B0502",
"4  c #320B04",
"5  c #370608",
"6  c #231302",
"7  c #2D1202",
"8  c #23150C",
"9  c #2B110B",
"0  c #251B08",
"q  c #331B0C",
"w  c #391803",
"e  c #240914",
"r  c #290B1A",
"t  c #220D1C",
"y  c #330911",
"u  c #221413",
"i  c #2B1213",
"p  c #221B11",
"a  c #311A12",
"s  c #38191B",
"d  c #15230E",
"f  c #152213",
"g  c #153519",
"h  c #28260B",
"j  c #382408",
"k  c #353A0E",
"l  c #2D2217",
"z  c #29261E",
"x  c #2A2C1C",
"c  c #252519",
"v  c #34261F",
"b  c #38281E",
"n  c #2D3F1A",
"m  c #361D22",
"M  c #331F29",
"N  c #381925",
"B  c #1E272F",
"V  c #1C2A33",
"C  c #1D323B",
"Z  c #2B2A2B",
"A  c #27242B",
"S  c #342223",
"D  c #3D2227",
"F  c #3A212C",
"G  c #342C22",
"H  c #263F21",
"J  c #3F322A",
"K  c #232A33",
"L  c #2B2F35",
"P  c #252834",
"I  c #32343D",
"U  c #393931",
"Y  c #450500",
"T  c #400C06",
"R  c #4C140F",
"E  c #4D161D",
"W  c #59141D",
"Q  c #4F2416",
"!  c #50261A",
"~  c #6D271F",
"^  c #76241E",
"/  c #491922",
"(  c #5B2E26",
")  c #592B29",
"_  c #47362B",
"`  c #573628",
"'  c #482F33",
"]  c #5B2D39",
"[  c #5C2C35",
"{  c #433234",
"}  c #49353A",
"|  c #493838",
" . c #593438",
".. c #6B242E",
"X. c #66292C",
"o. c #67292B",
"O. c #7D2223",
"+. c #74222E",
"@. c #752227",
"#. c #603527",
"$. c #662934",
"%. c #762231",
"&. c #264317",
"*. c #2A4115",
"=. c #324011",
"-. c #265914",
";. c #225619",
":. c #245919",
">. c #2B5515",
",. c #315814",
"<. c #326E1B",
"1. c #33751B",
"2. c #34791C",
"3. c #1B4123",
"4. c #185426",
"5. c #165429",
"6. c #175A2C",
"7. c #1D6F34",
"8. c #1B6F39",
"9. c #1E7136",
"0. c #1D743A",
"q. c #1F7A3C",
"w. c #236F2F",
"e. c #2C7425",
"r. c #26732C",
"t. c #2A7629",
"y. c #2C7829",
"u. c #2F7926",
"i. c #307521",
"p. c #307822",
"a. c #217333",
"s. c #207638",
"d. c #207D3D",
"f. c #76493B",
"g. c #193446",
"h. c #212C40",
"j. c #4F3A51",
"k. c #57344B",
"l. c #682D41",
"z. c #3D4B4C",
"x. c #365459",
"c. c #4C5659",
"v. c #604848",
"b. c #7B4C4A",
"n. c #784B46",
"m. c #695F48",
"M. c #755C48",
"N. c #7B5C5B",
"B. c #765954",
"V. c #6D5857",
"C. c #68664F",
"Z. c #75624C",
"A. c #7B614B",
"S. c #696851",
"D. c #796455",
"F. c #726054",
"G. c #454F61",
"H. c #524A62",
"J. c #445B6B",
"K. c #8A3E2A",
"L. c #963D2F",
"P. c #832430",
"I. c #853D39",
"U. c #9D3E34",
"Y. c #9B3E39",
"T. c #A33D2E",
"R. c #A53A2E",
"E. c #A23D32",
"W. c #9E402F",
"Q. c #964329",
"!. c #844437",
"~. c #824439",
"^. c #8F4739",
"/. c #854A36",
"(. c #934537",
"). c #9A4232",
"_. c #94423B",
"`. c #9A4738",
"'. c #89462C",
"]. c #A1452E",
"[. c #A83B46",
"{. c #854643",
"}. c #8A4845",
"|. c #855B49",
" X c #944445",
".X c #21803F",
"XX c #968B77",
"oX c #A38E7B",
"OX c #B28F7B",
"+X c #AF9177",
"@X c #B98C67",
"#X c #5C8B92",
"$X c #638A94",
"%X c #6A8A96",
"&X c #6D9398",
"*X c #9D9489",
"=X c #AA8F83",
"-X c #AD9384",
";X c #AE9A82",
":X c #A6998A",
">X c #AA9292",
",X c #8BB9C5",
"<X c #A4BBCB",
"1X c #9BC4CB",
"2X c #98C6D2",
"3X c #A2C6D4",
/* pixels */
"1.1.1.2.2.<.j w j k k >.1.1.2.2.2.1.1.1.1.1.1.1.1.2.2.1.<.1.1.1.",
"1.1.1.1.1.h b.~.(._._.{.5 ,.1.1.2.2.r.w.1.e.1.1.1.1.1.2.2.1.1.1.",
"1.1.1.1.1.1.4 ~ T.E.R.U.O.X.x e.1.e.9.7.9.r.1.1.1.1.1.1.1.1.1.1.",
"1.1.1.1.1.1.Y _.T.T.E.Y. Xo.[ c u.e.a.9.0.9.a.e.1.1.1.1.2.2.2.1.",
"1.1.1.2.2.Y Y.E.R.E.E._.}.W $.] u e.a.9.9.0.0.r.1.2.2.1.2.2.1.1.",
"1.1.1.1.Y _.U.T.T.).(.~.( 3 E  .' *.e.e.7.0.0.a.e.2.2.1.1.1.1.1.",
"1.1.1.3 E.E.W.T.T.`.!.( > , 4  . .&.e.r.0.0.0.a.u.1.1.1.1.1.1.1.",
"1.1.8 X.Y.U.T.W.)./.f., A.-X-X_ | c 0.0.q.0.0.0.a.e.1.1.1.1.1.1.",
"1.2.i o.^ U.R.L.^.f.O Z.+X;X:X_ | ; 0.0.0.0.0.9.e.r.t.1.<.1.1.1.",
"1.t.y X.@.O.Y.}.n.> % 6 > _ O @ S = 0.0.0.0.0.0.a.r.a.e.1.1.1.1.",
"1.< / $.%.+.+.$.S @ + 6 6 :X+ = S = 9.0.0.q.q.0.0.0.a.1.1.<.1.1.",
"1.& m / ....+.) < 7 7 7 > -X< < S u q.q.0.0.q.0.9.r.r.e.1.2.1.1.",
"1.= X s E X...) 9 |.@XOX` , ( B.S u d.0.0.0.0.a.r.r.a.e.2.2.1.1.",
"1.1 1 5 E / [ s m 1 =X=X>X1 N.D s u q.q.0.0.0.a.t.2.1.1.1.1.1.1.",
"j n.R T 5 y r M F M M & t e r F i u X q.q.q.0.q.a.e.1.1.1.1.1.1.",
"k {.@.....] M t * A K B V K P A e u { 3.q.0.0.0.a.i.1.1.1.1.1.1.",
"k I.[.P.%.l.k.j.H.G.%X$X#X1X&XI N D } 3.0.0.0.0.0.t.2.2.1.1.1.1.",
"1.q {.}... .j.A h.J.$X$X#X1X%XL m { { 3.0.0.t.e.e.2.2.1.1.1.1.1.",
"1.1.h n.b.v.Z V g.%X,X2X2X3X<XI } } = 0.0.a.u.2.1.1.1.2.2.1.1.1.",
"1.1.1.. 2 8 + A P C x.x.x.x.c.: & X s.s.0.a.u.2.2.1.1.1.1.1.1.1.",
"1.1.1.1.1.@ O @ Z L z.z.c.c.Z = = i.2.y.0.a.p.2.2.1.1.1.2.2.2.1.",
"1.1.1.2.2.1., , 2 9 8 G c p 8 = e.1.1.t.a.0.t.1.1.2.2.1.1.1.1.1.",
"1.1.1.1.2.1.T I.I.{.Q OXoXM.q l 1.1.1.2.r.t.1.1.1.1.2.1.1.1.1.1.",
"1.1.1.1.1.w K.K.`.!.! 7 F.> a v c 1.2.2.2.1.1.1.1.1.1.1.1.1.1.1.",
"e.t.t.t.n ~.Q.].T.^.( N.u V.s S z f y.u.e.e.u.u.e.y.y.y.u.e.y.e.",
"9.a.a.0.H f.'.(.`.|.a J U { a v z - 0.0.0.0.q.q.0.q.q.q.0.0.0.0.",
"0.t.1.p.q #./././.`   - - $ b l z # 9.9.0.0.q.q.q.d.q.0.q.0.0.0.",
"q.0.a.1.> 7 w , , 6 # - # $ oX*X$ 9.0.0.0.0.q.q.q.q.q.q.0.9.0.0.",
"0.0.8.9.q Z.Z.6 y.9.    f p oX:X@ t.u.y.0.0.0.0.0.0.0.0.9.9.0.0.",
"0.9.r.&.Z.m.C.O t.a.0.0.9.6 M.D.p 2.2.e.7.0.0.0.0.q.q.0.0.0.0.0.",
"q.0.a.h M.C.d 2.2.t.a.0.a.. |.D.@ 2.2.2.r.9.0.0.0.d..Xd.q.q.d.q.",
"6.6.g XX;XS.# -.-.:.:.4.4.> |.=X*X+ -.-.:.:.:.5.5.5.6.6.6.6.6.6."
};
