/* XPM */
static char *_b147f260ce7469ff56287821612ed7f3yVCwQJ1X5Rftlli[] = {
/* columns rows colors chars-per-pixel */
"32 32 197 2 ",
"   c #0C0E0B",
".  c #1E0D09",
"X  c #150F09",
"o  c #1C1505",
"O  c #16120C",
"+  c #1B130C",
"@  c #1C1A05",
"#  c #1B0E10",
"$  c #151313",
"%  c #1C1314",
"&  c #141619",
"*  c #2E0700",
"=  c #230D02",
"-  c #2C0D03",
";  c #240D0C",
":  c #290C0C",
">  c #2D060F",
",  c #350602",
"<  c #3C0400",
"1  c #340800",
"2  c #380C08",
"3  c #340B0A",
"4  c #241201",
"5  c #201907",
"6  c #22130C",
"7  c #2E1809",
"8  c #311808",
"9  c #240F13",
"0  c #290C17",
"q  c #360B14",
"w  c #231215",
"e  c #281010",
"r  c #241618",
"t  c #351310",
"y  c #1C2317",
"u  c #1D3214",
"i  c #382B0E",
"p  c #31390D",
"a  c #212615",
"s  c #2E241D",
"d  c #342A12",
"f  c #39231B",
"g  c #2A3214",
"h  c #323E11",
"j  c #351D23",
"k  c #3B1E24",
"l  c #3B1E28",
"z  c #1D2C34",
"x  c #162B36",
"c  c #2A2424",
"v  c #23272E",
"b  c #2C282B",
"n  c #342225",
"m  c #3A2425",
"M  c #392429",
"N  c #382D28",
"B  c #292732",
"V  c #232C35",
"C  c #2B2A34",
"Z  c #3E3435",
"A  c #430603",
"S  c #421608",
"D  c #48191F",
"F  c #491A15",
"G  c #57161D",
"H  c #72271C",
"J  c #461925",
"K  c #4B1A26",
"L  c #441627",
"P  c #412325",
"I  c #412D22",
"U  c #532E2A",
"Y  c #5F2B2E",
"T  c #413827",
"R  c #46362A",
"E  c #51342D",
"W  c #5C3328",
"Q  c #592D33",
"!  c #443635",
"~  c #4C3434",
"^  c #4C353B",
"/  c #47363C",
"(  c #513233",
")  c #5D3234",
"_  c #51313E",
"`  c #682827",
"'  c #692A2E",
"]  c #67282B",
"[  c #75242B",
"{  c #75282E",
"}  c #7A2629",
"|  c #642A34",
" . c #6A2934",
".. c #6B2535",
"X. c #732631",
"o. c #782330",
"O. c #2C400F",
"+. c #304114",
"@. c #265914",
"#. c #225519",
"$. c #245919",
"%. c #265614",
"&. c #326E1A",
"*. c #33751B",
"=. c #35791C",
"-. c #1E4326",
";. c #185426",
":. c #165429",
">. c #175A2C",
",. c #244721",
"<. c #1D6F34",
"1. c #1B6D38",
"2. c #1E7136",
"3. c #1D743A",
"4. c #1F7A3C",
"5. c #236F2F",
"6. c #2C7425",
"7. c #26732C",
"8. c #2A7629",
"9. c #2C7829",
"0. c #2F7926",
"q. c #307320",
"w. c #307822",
"e. c #227333",
"r. c #207D3D",
"t. c #7C4A3D",
"y. c #7E5E39",
"u. c #7B5C36",
"i. c #375359",
"p. c #355A61",
"a. c #45494D",
"s. c #464F54",
"d. c #4A5055",
"f. c #495059",
"g. c #7B4A42",
"h. c #784A46",
"j. c #775145",
"k. c #7A5144",
"l. c #755F4D",
"z. c #7B5F4A",
"x. c #6B5250",
"c. c #795C5D",
"v. c #755B57",
"b. c #73614D",
"n. c #7A6349",
"m. c #6C6556",
"M. c #726652",
"N. c #9D3E2C",
"B. c #9C3A23",
"V. c #9D3E32",
"C. c #9A3E3C",
"Z. c #A33E2E",
"A. c #A83D2F",
"S. c #A43D32",
"D. c #AA3A33",
"F. c #A33E3A",
"G. c #86463D",
"H. c #8D463C",
"J. c #844A3D",
"K. c #884835",
"L. c #934333",
"P. c #9E4033",
"I. c #96423D",
"U. c #914839",
"Y. c #9C403B",
"T. c #A5412C",
"R. c #A44030",
"E. c #81623E",
"W. c #864541",
"Q. c #8B4942",
"!. c #884848",
"~. c #9A4040",
"^. c #21803F",
"/. c #B68C6C",
"(. c #B8906C",
"). c #AF8C7C",
"_. c #A39278",
"`. c #B1947B",
"'. c #B39470",
"]. c #5C8D9C",
"[. c #6E8793",
"{. c #618E9D",
"}. c #6F8A94",
"|. c #5C91A1",
" X c #608FA1",
".X c #9B9A98",
"XX c #AE8D88",
"oX c #AA9284",
"OX c #A9958C",
"+X c #A59687",
"@X c #B09385",
"#X c #A69794",
"$X c #9EBFCF",
"%X c #9DB8C2",
"&X c #96BFD1",
"*X c #9AC1CE",
"=X c #99C2D7",
/* pixels */
"*.*.*.=.=.*.&.*.*.*.*.*.*.*.=.=.=.*.*.*.*.*.*.*.*.=.=.*.&.*.*.*.",
"*.*.*.*.*.=.=.=.*.=.*.*.*.*.*.*.=.=.7.5.*.6.*.*.*.*.*.=.=.*.*.*.",
"*.*.*.*.*.4 1 1 1 , < : *.6.7.6.*.6.2.<.2.7.*.*.*.*.*.*.*.*.*.*.",
"*.*.*.*.*.O.h.Q.U.U.U.!.q a 1.7.6.6.e.2.3.2.e.6.*.*.*.*.=.=.=.*.",
"*.*.*.=.=.*.2 H A.S.P.~.o.Y a e.6.6.e.2.2.3.3.7.*.=.=.*.=.=.*.*.",
"*.*.*.*.=.*.S P.D.S.S.I.!.' ) g *.*.6.6.<.3.3.e.6.=.=.*.*.*.*.*.",
"*.*.*.*.*.i V.S.D.D.S.I.!.G  .( y 6.6.7.3.3.3.e.0.*.*.*.*.*.*.*.",
"*.*.6.7.d L.T.R.A.V.I.W.U , F ( ! -.3.3.4.3.3.3.e.6.*.*.*.*.*.*.",
"*.=.7.d F.Z.T.B.N.L.H.W = - * E ~ -.3.3.3.3.3.2.6.7.8.*.&.*.*.*.",
"*.8.,.` C.V.A.N.L.J.j.- l.oXXX( ~ -.3.3.3.3.3.3.e.7.e.6.*.*.*.*.",
"*.*.h ' } C.S.L.K.j.X l.`.@XOX~ ! y 2.3.3.4.4.3.3.3.e.*.*.&.*.*.",
"*.*.t ] { } C.G.j.4 + = - R + w n % 4.4.3.3.4.3.2.7.7.6.*.=.*.*.",
"*.g L  .{ { [ ) s + + = - OXO % n % r.3.3.3.3.e.7.7.e.6.=.=.*.*.",
"*.9 L K | ' X.Q . 4 = = = OX6 6 j % 4.4.3.3.3.e.8.=.*.*.*.*.*.*.",
"*.# 9 k J | ..Q . z.(.`.R = U c.j % 4.4.4.4.3.4.e.6.*.*.*.*.*.*.",
"&.: : > J J Q P m - ).oX#Xe c.n c O 3.4.4.3.3.3.e.q.*.*.*.*.*.*.",
"p h.D > q 0 w n k m k 9 % 9 0 n % O $ 3.3.3.3.3.3.8.=.=.*.*.*.*.",
"h g.` '  .Q j % & v V z x V B b w # Z -.3.3.8.6.6.=.=.*.*.*.*.*.",
"+.W.Y.} X.| _ a.i.p.{.].|.*X[.C j j / -.3.e.0.=.*.*.*.=.=.*.*.*.",
"*.8 Q.!.` ) / C z i.{.{. X*X[.C l ^ ^ -.3.e.0.=.=.*.*.*.*.*.*.*.",
"*.*.7 j.t.x.C v V [.*X=X=X$X%XB ^ / + 9.3.e.w.=.=.*.*.*.=.=.=.*.",
"*.*.=.; : ; w n M b a.s.f.d.d.$ r % *.8.e.3.8.*.*.=.=.*.*.*.*.*.",
"*.*.*.*.=.*.; 3 1 - : f P ; ; + *.*.*.=.7.8.*.*.*.*.=.*.*.*.*.*.",
"*.*.*.*.*.*.A G.H.g.I OXOXv.P n *.*.=.=.=.*.*.*.*.*.*.*.*.*.*.*.",
"6.8.8.8.8.< V.P.Z.J.N 5 M.: K j c 0.9.0.6.6.0.0.6.9.9.9.0.6.9.6.",
"2.e.e.3.- J.P.P.Z.J.o m.o v.J M b   3.3.3.3.4.4.3.4.4.4.3.3.3.3.",
"3.8.*.w.2 Q.V.N.N.t.+ T T ~ J M c O 2.2.3.3.4.4.4.r.4.3.4.3.3.3.",
"4.3.e.*.- W k.t.g.E O O O : F f c $ 3.3.3.3.4.4.4.4.4.4.3.2.3.3.",
"3.3.2.2.4 5 o O $ O O O $ 4 /.oX% 8.0.9.3.3.3.3.3.3.3.3.2.2.3.3.",
"3.2.7.@ n.M.m.O 8.e.3.3.2.= y.b.  *.=.8.<.3.3.3.3.4.4.3.3.3.3.3.",
"4.3.e.4 E.b.O =.=.8.e.3.e.4 y.b.$ *.=.=.7.2.3.3.3.r.^.r.4.4.r.4.",
">.>.o _.'.b.O @.%.#.#.;.;.4 u.+X.Xu @.@.$.$.#.:.:.:.>.>.>.>.>.>."
};
