/* XPM */
static char *_9559_1105dda4565eb87d4c865ba7c918251e0fd8d7f90b104d51bf199e53bd1f213c[] = {
/* columns rows colors chars-per-pixel */
"32 32 185 2 ",
"   c #1C0E05",
".  c #1B0C0D",
"X  c #1D1302",
"o  c #15120E",
"O  c #1A120B",
"+  c #1C0E13",
"@  c #09191B",
"#  c #051D1D",
"$  c #151312",
"%  c #1B1313",
"&  c #1A1A14",
"*  c #121619",
"=  c #1F1619",
"-  c #2E0700",
";  c #240E03",
":  c #2C0D02",
">  c #230D0C",
",  c #2B0A0B",
"<  c #390701",
"1  c #340C04",
"2  c #3A0900",
"3  c #34090C",
"4  c #300706",
"5  c #231202",
"6  c #2C1203",
"7  c #21130B",
"8  c #231313",
"9  c #211718",
"0  c #281C18",
"q  c #321211",
"w  c #39190C",
"e  c #1C3E1A",
"r  c #22220E",
"t  c #38290F",
"y  c #36290E",
"u  c #323C0D",
"i  c #252213",
"p  c #3A241C",
"a  c #3C2E1C",
"s  c #323D15",
"d  c #2F1F22",
"f  c #351B21",
"g  c #3A1D22",
"h  c #1D292B",
"j  c #1D3F24",
"k  c #1C2F37",
"l  c #242A2E",
"z  c #2B2726",
"x  c #342323",
"c  c #3B2123",
"v  c #392229",
"b  c #33282B",
"n  c #243E22",
"m  c #252A31",
"M  c #2A2833",
"N  c #332735",
"B  c #3A3331",
"V  c #420300",
"C  c #411307",
"Z  c #461918",
"A  c #421A18",
"S  c #501319",
"D  c #432A15",
"F  c #5F2E1D",
"G  c #71291F",
"H  c #461522",
"J  c #441B21",
"K  c #4B1722",
"L  c #7F1F23",
"P  c #5B2C2A",
"I  c #45392E",
"U  c #46362A",
"Y  c #52322C",
"T  c #5B3123",
"R  c #462A35",
"E  c #472A33",
"W  c #552E34",
"Q  c #5C2D35",
"!  c #4C3435",
"~  c #47343A",
"^  c #54333A",
"/  c #66262C",
"(  c #6A262E",
")  c #642B2F",
"_  c #682628",
"`  c #742326",
"'  c #7A2324",
"]  c #74232D",
"[  c #7E232B",
"{  c #622D32",
"}  c #6B2933",
"|  c #2D4113",
" . c #22451C",
".. c #265914",
"X. c #225619",
"o. c #245919",
"O. c #265614",
"+. c #326E1A",
"@. c #33751B",
"#. c #35791C",
"$. c #1F4525",
"%. c #185426",
"&. c #165429",
"*. c #175A2C",
"=. c #214429",
"-. c #1D6F34",
";. c #1B6E38",
":. c #1E7136",
">. c #1D743A",
",. c #1F7A3C",
"<. c #236F2F",
"1. c #2C7425",
"2. c #26732C",
"3. c #2A7529",
"4. c #2C7829",
"5. c #2F7926",
"6. c #307320",
"7. c #307822",
"8. c #227333",
"9. c #207D3D",
"0. c #7B4D3E",
"q. c #7D5F3B",
"w. c #7E603C",
"e. c #3E515B",
"r. c #365464",
"t. c #4C4D57",
"y. c #434E56",
"u. c #445356",
"i. c #6D4E4C",
"p. c #7A4B45",
"a. c #734E4B",
"s. c #7E4F4C",
"d. c #7F5F40",
"f. c #775F4D",
"g. c #795B4B",
"h. c #7A5E55",
"j. c #74634F",
"k. c #7E6346",
"l. c #76625D",
"z. c #726354",
"x. c #676559",
"c. c #9E3A2A",
"v. c #9B3E35",
"b. c #9A3E3D",
"n. c #A33C2D",
"m. c #A83B2C",
"M. c #A23E32",
"N. c #A23E3A",
"B. c #8C4436",
"V. c #85453D",
"C. c #8D453C",
"Z. c #824A3E",
"A. c #8B4A3C",
"S. c #894B36",
"D. c #914737",
"F. c #984336",
"G. c #91433C",
"H. c #9B403F",
"J. c #815D39",
"K. c #A7402F",
"L. c #A54133",
"P. c #836038",
"I. c #834946",
"U. c #924140",
"Y. c #21803F",
"T. c #B6936F",
"R. c #B58F73",
"E. c #B98F7B",
"W. c #AB937B",
"Q. c #AD9275",
"!. c #5F879F",
"~. c #6A858E",
"^. c #688A99",
"/. c #5B8DA1",
"(. c #608DA0",
"). c #9F9B88",
"_. c #9F9291",
"`. c #A39583",
"'. c #AB9482",
"]. c #A89586",
"[. c #9BBECB",
"{. c #9ABFD0",
"}. c #9AC0CD",
"|. c #9AC2D2",
" X c #A0C1D0",
/* pixels */
"@.#.@.#.#.@.+.@.@.+.@.@.@.@.#.#.#.@.@.@.@.@.@.#.@.#.#.@.+.@.@.@.",
"@.@.#.#.@.#.#.@.@.@.@.@.@.@.@.@.#.#.2.<.@.1.@.@.@.#.@.#.#.@.+.@.",
"@.@.@.@.@.  1 < < < 2 ; @.1.2.1.@.1.-.-.:.2.@.@.@.@.#.@.@.@.@.@.",
"@.@.@.@.@.s p.Z.B.B.B.I.1 i ;.2.1.1.8.:.:.:.:.1.@.@.@.@.@.#.@.@.",
"@.@.@.@.@.@.1 ` n.c.n.v.' P r 2.1.1.2.:.:.:.>.1.6.#.#.@.@.#.@.@.",
"@.@.@.@.#.@.C D.n.n.n.F.U._ ) 0 @.+.1.1.;.>.>.>.6.@.#.#.@.@.@.+.",
"@.@.@.@.6.y F.n.n.n.m.F.U.` ] Q e 1.1.2.>.,.>.>.1.#.@.@.@.#.@.@.",
"@.+.1.2.y D.L.L.n.n.M.U.I.S } ^ 0 :.:.>.,.>.>.>.:.1.@.@.@.@.@.@.",
"+.@.2.w N.M.m.M.m.L.v.I.! 3 K Q R j ,.,.>.>.:.:.1.2.1.@.+.@.@.@.",
"@.1.n _ N.N.M.n.n.F.B.F 1 - < W ~ $.,.:.>.,.:.>.:.2.8.2.@.@.+.@.",
"@.@.s ( L H.M.n.K.C.0.1 J.R.E.Y ^ $.:.:.,.,.,.>.>.>.<.@.@.+.@.@.",
"@.@.q } ' ' H.D.C.p.5 k.Q.'.'.! R = ,.>.>.>.>.:.:.<.2.1.@.@.#.+.",
"@.s H / ` ` ] { a.8 $   ; I % 8 N 9 ,.9.:.,.:.8.2.2.8.3.@.@.@.+.",
"@.% f K / ( ( P p 7 X X 5 `.O 7 v 9 >.>.>.>.>.>.4.#.@.@.#.@.@.@.",
"@.o + g H Q / Y X X 6 5 X `.5 7 g 9 ,.>.,.>.>.,.8.1.#.@.@.@.@.@.",
"+.+ % 8 x c W c & j.W.`.U 5 U l.f 9 >.,.Y.>.>.,.8.6.@.@.@.@.@.@.",
"@.O O O * $ % x p 7 `.`.`.7 l.c b 8 >.:.>.>.,.>.:.2.@.#.@.@.@.@.",
"s a.Z , , , + % * l h # # @ * z + + . :.:.>.1.1.7.#.#.@.@.@.@.@.",
"u I.` ` ] { v t.e.r.^././.|.~.m + + W j >.8.5.#.#.#.@.#.#.+.+.@.",
"u p.U.' [ { ~ M k r.(.(.(.}.^.M f g ~ $.,.>.1.#.@.@.@.@.@.+.@.@.",
"@.6 G.G.' { ~ m k ~.[.[.{.|.[.N K E B  .>.8.7.#.@.#.@.@.#.#.#.+.",
"@.@.: s.s.i.x x x l u.u.e.y.t.+ ^ ~ & 1.2.>.1.@.@.#.#.@.#.@.@.@.",
"@.@.@.$ $ O ; : 2 6 o z b + . % & o @.#.2.1.@.@.@.@.#.@.@.@.@.@.",
"@.@.@.@.@.@.V C.D.0.a 5 ; ; g x @.@.#.#.#.@.@.@.@.@.@.@.@.@.@.@.",
"1.2.1.3.3.< m.n.c.S.D Q.Q.g.J g f 2.4.2.3.2.4.3.1.5.4.4.3.3.4.1.",
":.8.8.9., B.m.n.L.A.a 6 f.- Z g b o >.>.8.>.,.,.>.9.,.,.:.>.>.,.",
"8.3.@.7.3 G.L.v.M.V.; h.; h.K c f $ :.:.:.:.,.,.,.9.,.,.,.>.>.>.",
",.:.8.1.: T Z.0.s.!   I U U A p x o ,.>.>.>.,.,.,.,.,.,.,.:.>.>.",
">.>.:.:.5 X X O $ $ o % * ; R.'.8 1.5.4.:.>.,.>.,.>.>.>.:.:.>.>.",
">.:.2.X k.j.x.$ 2.8.:.>.>.5 d.j.O #.@.3.-.:.:.>.>.9.,.>.>.:.:.>.",
",.>.2.5 w.j.& #.#.1.8.>.8.X w.j.8 @.#.#.2.>.>.>.>.9.Y.9.9.,.,.>.",
"*.*.& W.T.j.o ..O.o.o.%.%.5 w.'._.& ....o.o.X.&.&.&.*.*.*.*.*.*."
};
