/* XPM */
static char *_2592_f8e95cba3c6f584d44103f99dd91e837b8cdc3176b13396c43a422d35ee5f562[] = {
/* columns rows colors chars-per-pixel */
"32 32 191 2 ",
"   c #1C0F0C",
".  c #1C0A05",
"X  c #0E140B",
"o  c #171206",
"O  c #1E1204",
"+  c #14160D",
"@  c #1C130C",
"#  c #191B0F",
"$  c #180E1F",
"%  c #0E1716",
"&  c #161313",
"*  c #1C1312",
"=  c #171B12",
"-  c #191619",
";  c #240E04",
":  c #2B0C02",
">  c #230E0C",
",  c #2A0C0C",
"<  c #350604",
"1  c #3B0601",
"2  c #340B01",
"3  c #390902",
"4  c #34060C",
"5  c #251102",
"6  c #281101",
"7  c #25140A",
"8  c #2B1409",
"9  c #2C1B09",
"0  c #38180B",
"q  c #230E11",
"w  c #2D0C14",
"e  c #200E1C",
"r  c #310C12",
"t  c #241214",
"y  c #201E18",
"u  c #281213",
"i  c #341E1D",
"p  c #391B19",
"a  c #1F261A",
"s  c #2C240A",
"d  c #33250A",
"f  c #333D0E",
"g  c #262718",
"h  c #3D261A",
"j  c #2A3F1B",
"k  c #2F3D11",
"l  c #341E26",
"z  c #3C1D21",
"x  c #381E2A",
"c  c #301E2A",
"v  c #1D3A21",
"b  c #2E2A24",
"n  c #2B262B",
"m  c #352224",
"M  c #32232C",
"N  c #392026",
"B  c #243E24",
"V  c #283C20",
"C  c #3B392D",
"Z  c #222734",
"A  c #2A2631",
"S  c #272A3A",
"D  c #372133",
"F  c #352A30",
"G  c #410000",
"H  c #450902",
"J  c #441A08",
"K  c #4A171A",
"L  c #43191A",
"P  c #422B1B",
"I  c #7A2219",
"U  c #421C23",
"Y  c #491623",
"T  c #571026",
"R  c #592D2C",
"E  c #4B342F",
"W  c #45362A",
"Q  c #563329",
"!  c #4F2E37",
"~  c #5D2B33",
"^  c #5D2D39",
"/  c #4B3135",
"(  c #473637",
")  c #533033",
"_  c #523138",
"`  c #6E262E",
"'  c #622B2E",
"]  c #692A2C",
"[  c #612C26",
"{  c #742225",
"}  c #792322",
"|  c #72232B",
" . c #603022",
".. c #672935",
"X. c #672A35",
"o. c #254518",
"O. c #304011",
"+. c #265914",
"@. c #225619",
"#. c #245919",
"$. c #265614",
"%. c #326F1B",
"&. c #33751B",
"*. c #34791C",
"=. c #1F4427",
"-. c #185426",
";. c #165429",
":. c #175A2C",
">. c #204226",
",. c #1D6F34",
"<. c #1E7136",
"1. c #1D743A",
"2. c #1F7A3C",
"3. c #236F2F",
"4. c #2C7425",
"5. c #26732C",
"6. c #2A7629",
"7. c #2C7829",
"8. c #2F7926",
"9. c #307822",
"0. c #307320",
"q. c #217333",
"w. c #207538",
"e. c #207D3D",
"r. c #7D5D3C",
"t. c #1D2B44",
"y. c #463440",
"u. c #36566B",
"i. c #404E59",
"p. c #524A58",
"a. c #485155",
"s. c #465155",
"d. c #7A4B43",
"f. c #744C49",
"g. c #7A494A",
"h. c #764C42",
"j. c #745647",
"k. c #6A4F50",
"l. c #755E55",
"z. c #765B58",
"x. c #76614C",
"c. c #7C6242",
"v. c #6E6156",
"b. c #766352",
"n. c #7A6152",
"m. c #71605C",
"M. c #4A4C61",
"N. c #415161",
"B. c #9F3C2F",
"V. c #9D3D33",
"C. c #9A3D38",
"Z. c #A33C2D",
"A. c #A33D33",
"S. c #A83C30",
"D. c #98412E",
"F. c #8D443C",
"G. c #834B3C",
"H. c #8A4B3D",
"J. c #8A4638",
"K. c #934435",
"L. c #9A4236",
"P. c #96433D",
"I. c #9B413C",
"U. c #885C39",
"Y. c #A34134",
"T. c #903E43",
"R. c #8C4841",
"E. c #854744",
"W. c #934442",
"Q. c #825D42",
"!. c #21803F",
"~. c #B48C6B",
"^. c #B98E78",
"/. c #A8947C",
"(. c #B59276",
"). c #797F90",
"_. c #5B8F9F",
"`. c #6C859C",
"'. c #6C8998",
"]. c #728695",
"[. c #5D92A7",
"{. c #AC9383",
"}. c #A4968A",
"|. c #A9968A",
" X c #A79484",
".X c #B09384",
"XX c #A29594",
"oX c #9DBECA",
"OX c #98BFD6",
"+X c #A7BAC9",
"@X c #A2C0CE",
/* pixels */
"&.*.&.*.*.&.%.&.&.&.&.&.&.&.*.*.&.&.&.0.&.&.&.*.&.*.*.&.&.&.&.&.",
"&.&.&.*.&.@ ; 2 3 3 3 s &.&.&.&.*.*.5.3.&.4.&.&.*.*.&.*.*.&.%.&.",
"&.&.&.&.&.k R.C.A.A.Y.R.< o.5.4.&.4.<.,.,.q.*.&.&.&.&.&.&.%.&.&.",
"&.&.&.&.&.&.H I B.A.A.W.] ~ g 5.4.4.3.<.,.,.q.4.&.&.&.&.&.*.&.%.",
"&.&.&.&.*.*.J V.Z.Z.Y.C.W.` X.g 4.4.q.,.,.1.<.5.&.*.*.&.*.*.&.&.",
"&.&.&.&.*.0 L.Z.B.A.A.F.g.K X.! # %.0.4.,.1.2.<.0.&.*.&.&.&.&.&.",
"&.&.&.&.J C.A.A.Z.A.C.E.( r Y _ ( o.4.3.1.1.1.<.4.&.&.&.&.&.&.&.",
"%.&.4.9 P.V.Z.Z.Z.K.R. .8 3 3 Q ( =.1.1.2.1.2.1.q.6.&.&.&.&.&.&.",
"&.&.j ` I.A.S.Z.Z.H.j.2 U.^.^.Q W =.1.2.1.1.<.,.6.5.6.&.%.&.&.&.",
"&.4.j ` } C.V.P.F.d.5 j./.{..XE ( a 1.1.2.2.1.1.q.5.,.4.&.&.%.&.",
"&.&.u ] { } C.E.j.7 & O 7 ( @ * m - ,.1.1.2.2.1.1.,.q.&.&.%.&.&.",
"&.g U ' ` { { [ i 5 O O 5 }.o 7 N * 1.2.1.1.2.<.<.q.5.4.&.&.&.%.",
"&.  z K X.` | R O 5 : : 5 }.O @ m * 2.1.1.1.1.q.5.5.5.5.&.*.&.&.",
"%.  q z U ~ ..R ; l..X|.W ; / z.m @ 2.2.1.1.1.q.6.*.*.&.&.&.&.&.",
"&.>   > z z ! U N ; .X|.XX7 z.g i @ 2.2.1.1.1.2.q.4.&.&.&.&.&.&.",
"k f.K 4 4 4 w x c M g * % $ q N u q . 2.!.1.1.2.q.0.&.&.&.&.&.&.",
"k E.{ ` | ^ x $ $ n Z Z S S M l q w ) V 1.1.2.1.<.5.*.*.%.&.&.&.",
"O.g.W.{ { ~ ! p.p.u.'.'.).+X).D Y z ! B <.1.6.4.4.*.*.&.&.&.&.&.",
"&.9 P.P.I X.( S t.u._.[.[.OX`.D T ^ / B 1.q.9.*.*.&.&.*.*.%.%.&.",
"*.&.9 f.f.k.F A S ].+XOXoXOX+Xn _ _ - <.2.1.4.*.*.&.&.&.&.&.&.&.",
"&.&.&.& + & & n A S i.s.a.a.a.% = - 9.4.1.q.9.*.*.&.&.&.&.*.&.&.",
"&.&.&.*.*.*.: < < > & b b @ t - 4.*.9.4.5.1.4.&.&.*.*.&.&.&.&.&.",
"&.&.&.&.*.*.G D.Y.G.5 5 5 8 L N &.&.*.*.5.4.&.&.&.&.*.*.&.&.&.&.",
"&.&.&.&.&.3 D.D.Y.H.h  X|.z.U l n &.*.*.*.&.&.&.&.&.&.&.&.&.&.&.",
"4.5.7.4.d K.Z.Z.Y.H.P 5 v.> U l M = 5.5.4.4.5.4.0.8.7.7.8.5.8.4.",
"<.q.q.1.9 r.K.K.P.h.O v.5 l.L i m - w.1.<.1.2.2.1.e.2.2.<.1.2.1.",
"q.6.&.9.8 Q h.h.g.E # C C W J h b v <.<.<.2.2.2.2.e.2.2.2.1.1.1.",
"2.<.<.9.: : : : , @ + + O ; ^.{.g ,.1.1.1.2.2.2.2.2.2.2.2.1.1.1.",
"1.1.1.<.5 j.x.O 7.q.X & @ 6 ~..X=.4.4.7.<.1.2.2.2.1.1.1.<.<.1.<.",
"1.<.5.5 c.x.v.O 5.q.<.2.<.6 U.n.o.&.*.5.<.<.1.<.1.2.2.2.1.<.<.1.",
"2.1.5.5 r.b.* *.*.4.w.1.q.5 Q.l.g &.*.*.5.1.<.1.1.e.e.e.2.2.2.2.",
":.:.o /.(.l.+ +.$.#.@.-.-.5 j./.XX$.+.+.@.@.@.;.;.:.:.:.:.:.:.:."
};
