/* XPM */
static char *_6989470536c437ad35b212099354792Xa9cTxgrR9zA2K7v[] = {
/* columns rows colors chars-per-pixel */
"32 32 53 1 ",
"  c #141412",
". c #252716",
"X c #331E32",
"o c #373A20",
"O c #47280D",
"+ c #1C531F",
"@ c #275714",
"# c #265914",
"$ c #2E6C1D",
"% c #326E1B",
"& c #2F751F",
"* c #33751B",
"= c #35791C",
"- c #14532B",
"; c #175A2C",
": c #1E6F35",
"> c #1B6F38",
", c #1E7136",
"< c #1D743A",
"1 c #1F7A3D",
"2 c #246E2B",
"3 c #2C7324",
"4 c #2C7526",
"5 c #2F7A25",
"6 c #26722A",
"7 c #23722E",
"8 c #25732C",
"9 c #25752E",
"0 c #287329",
"q c #2A7428",
"w c #2A7528",
"e c #2C7728",
"r c #29782B",
"t c #2C7929",
"y c #307320",
"u c #307722",
"i c #307822",
"p c #217232",
"a c #227432",
"s c #257630",
"d c #207335",
"f c #217534",
"g c #207538",
"h c #207C3D",
"j c #5F5625",
"k c #1C3845",
"l c #5F2E5C",
"z c #B56C30",
"x c #21803F",
"c c #928230",
"v c #F09A53",
"b c #932D8B",
"n c #0C98D6",
/* pixels */
"***==*%*******===********==*%***",
"*****===*=******==62*3*****==***",
"*********0w**3.......8**********",
"******==ip,,..jccccjj p3****===*",
"***==*==w8<.jccccccccj 6*==*==**",
"****=*6&*9 jjcccccccccj 3==*****",
"*****6>wa ooojcccj  jcc 4*******",
"**388,,g1 oooojc     jc dw******",
"*=6,,8*3 oooooc       c w9w*%***",
"*0,p3*3w oooojc       c p8pw****",
"***8,p, oooooc   n  n j <,p**%**",
"**%3*3p ojjjocX  k  k j ,76w*=**",
"*****39  ojjjcX       o 69pw==**",
"***3*=u9   oojXlX     X w=******",
"*32:8*3, oooojjlllbbbbl f3******",
"%$2>p8p,.cccoojcllbbbbl  y******",
"**w444p.cccccjjccccjjcc  w==****",
"***==wa.cccccjjjccccccc  ==*****",
"*****==.jcccjoooccccccc  **==***",
"*****38<.... ooojcccccj =*******",
"*******=4,   oooo      ==***===*",
"**===***w6<OOzOzzzvvzz **==*****",
"****=****wpOOzOzzvvvvz ***=*****",
"**********.jjjjjjjvvzoo ********",
"wwwwwww4er.ccccccj  jjj wett4wew",
",ff<<t5r1.jcccccco  jjjj 111,111",
"<w*ii=*38.cccccco   jjjj h1<1<<<",
"1,p**3**  cccccc ,   jjj 111<,,<",
"<,,,p>wi         w5      <<,,,,,",
"<,6wpw== zzz  w98==w OOO 11<<,,,",
"1<s====  OOO *======      xh11h1",
";;-+##@ vvv  #@##@## Ozzz ;;;;;;"
};
