/* XPM */
static char *_8a8328bf3334ebef79cf5b8c800990e0uBVHJJ7DmBvby2v[] = {
/* columns rows colors chars-per-pixel */
"32 32 55 1 ",
"  c #141412",
". c #252716",
"X c #331E32",
"o c #373A20",
"O c #47280D",
"+ c #1C531F",
"@ c #275714",
"# c #265914",
"$ c #2E6C1D",
"% c #326E1B",
"& c #2F751F",
"* c #33751B",
"= c #35791C",
"- c #14532B",
"; c #175A2C",
": c #1D6F35",
"> c #1B6F38",
", c #1E7136",
"< c #1D743A",
"1 c #1F7A3D",
"2 c #246E2B",
"3 c #2C7324",
"4 c #2C7524",
"5 c #2C7426",
"6 c #2F7A25",
"7 c #26722A",
"8 c #23712D",
"9 c #25732C",
"0 c #26742D",
"q c #287329",
"w c #2A7428",
"e c #2A7528",
"r c #2C7728",
"t c #29782B",
"y c #2C7929",
"u c #307320",
"i c #307722",
"p c #307822",
"a c #217232",
"s c #247330",
"d c #227432",
"f c #257730",
"g c #207335",
"h c #217534",
"j c #207538",
"k c #207C3D",
"l c #5F5625",
"z c #1C3845",
"x c #5F2E5C",
"c c #B56C30",
"v c #21803F",
"b c #928230",
"n c #F09A53",
"m c #932D8B",
"M c #0C98D6",
/* pixels */
"***==*%*******===********==*%***",
"*****===*=******==72*3*****==***",
"*********qe**484*e,:,9**********",
"******==pa,,,,>74ea,,,a3****===*",
"***==*==e9<<f0.......,<7*==*==**",
"****=*7&*01<..lbbbbll 1g3==*****",
"*****7>ed<<.lbbbbbbbbl h4*******",
"**399,,j11 llbbbbbbbbbl ge******",
"*=7,,9*4s ooolbbbl  lbb 40e*%***",
"*q,a3*344 oooolb     lb a9a4****",
"***9,a,9 ooooob       b <,a**%**",
"**%3*4a< oooolb       b <874*=**",
"*****40 ooooob   M  M l 70a4==**",
"***4*=i olllobX  z  z l e=******",
"*32:9*4  olllbX       o h3******",
"%$2:a9a,   oolXxX     X fu******",
"**4444a< oooollxxxmmmmx ,e==****",
"***==eda.bbboolbxxmmmmx  ==*****",
"*****==.bbbbbllbbbbllbb  **==***",
"*****49.lbbblollbbbbbbb  *******",
"*******=.... ooolbbbbbl =***===*",
"**===***e7   oooo      **==*****",
"****=****eaOOcOcccnncc ***=*****",
"***********OOcOccnnnnc *********",
"4eeeeee4rt.lllllllnncoo 4ryy4ere",
",hh<<y6t11.bbbbbbl  lll 1111,111",
"<e*pp=*39.lbbbbbbo  llll k1<1<<<",
"1,a**3**a.bbbbbbo   llll 111<,,<",
"<,<,a:ep         e       <<,,,,,",
"<,7ea4== ccc     ==4 OOO 11<<,,,",
"1<f====  OOO *======      vk11k1",
";;-+##@ nnn  #@##@## Occc ;;;;;;"
};
