/* XPM */
static char *_7121c30897f4ad0f146a9027a56fa39PmvuTDI73jikqhQW[] = {
/* columns rows colors chars-per-pixel */
"32 32 56 1 ",
"  c #141412",
". c #252716",
"X c #331E32",
"o c #373A20",
"O c #47280D",
"+ c #1C531F",
"@ c #275714",
"# c #265914",
"$ c #2E6C1D",
"% c #326E1B",
"& c #2F751F",
"* c #33751B",
"= c #35791C",
"- c #14532B",
"; c #175A2C",
": c #1D6F35",
"> c #1B6F38",
", c #1E7136",
"< c #1D743A",
"1 c #1F7A3D",
"2 c #246E2B",
"3 c #2C7324",
"4 c #2C7524",
"5 c #2D7425",
"6 c #2C7426",
"7 c #2F7A25",
"8 c #26722A",
"9 c #23712D",
"0 c #25732C",
"q c #26742D",
"w c #287329",
"e c #2A7428",
"r c #2A7528",
"t c #2C7728",
"y c #29782B",
"u c #2C7929",
"i c #307320",
"p c #307722",
"a c #307822",
"s c #217232",
"d c #247330",
"f c #227432",
"g c #257730",
"h c #207335",
"j c #217534",
"k c #207538",
"l c #207C3D",
"z c #5F5625",
"x c #1C3845",
"c c #5F2E5C",
"v c #B56C30",
"b c #21803F",
"n c #928230",
"m c #F09A53",
"M c #932D8B",
"N c #0C98D6",
/* pixels */
"***==*%*******===********==*%***",
"*****===*=******==82*3*****==***",
"*********wr**494*r,:,0**********",
"******==as,,,,>84rs,,,s3****===*",
"***==*==r0<<gq.......,<8*==*==**",
"****=*8&*q1<..znnnnzz 1h3==*****",
"*****8>rf<<.znnnnnnnnz j4*******",
"**300,,k11 zznnnnnnnnnz hr******",
"*=8,,0*4d ooonnnnnnnnnz 4qr*%***",
"*w,s3*344 oooznnnz  znn s0s4****",
"***0,s,0 ooooozn     zn <,s**%**",
"**%3*4s< ooooon       n <984*=**",
"*****4q ooooozn       n 8qs4==**",
"%**4*=p ozzzonX  N  N z r=******",
"*32:0*4  ozzznX  x  x o j3******",
"%$2:s0s,   oozXcX     X gi******",
"**4444s< oooozzcccMMMMc ,r==****",
"***==rfs.nnnooznccMMMMc  ==*****",
"*****==.nnnnnzznnnnzznn  **==***",
"*****40.nnnnnozznnnnnnn  *******",
"*******=.nnnzoooznnnnnz =***===*",
"**===***r    oooo      **==*****",
"****=****rsOOvOvvvmmvv ***=*****",
"***********OOvOvvmmmmv *********",
"4rrrrrr4ty.zzzzzzzmmvoo 4tuu4rtr",
",jj<<u7y11.nnnnnnz  zzz 1111,111",
"<r*aa=*30.znnnnnno  zzzz l1<1<<<",
"1,s**3**s.nnnnnno   zzzz 111<,,<",
"<,<,s:ra  nnnnnn r   zzz <<,,,,,",
"<,8rs4== vvv     ==4 OOO 11<<,,,",
"1<g====  OOO *======      bl11l1",
";;-+##@ mmm  #@##@## Ovvv ;;;;;;"
};
