/* XPM */
static char *_e4252a70cf34689d60b9fb1568ec2f1BESIdgIxnybwJCEo[] = {
/* columns rows colors chars-per-pixel */
"32 32 55 1 ",
"  c #141412",
". c #252716",
"X c #331E32",
"o c #373A20",
"O c #47280D",
"+ c #1C531F",
"@ c #275714",
"# c #265914",
"$ c #2E6C1D",
"% c #326E1B",
"& c #2F751F",
"* c #33751B",
"= c #35791C",
"- c #14532B",
"; c #175A2C",
": c #1D6F35",
"> c #1B6F38",
", c #1E7136",
"< c #1D743A",
"1 c #1F7A3D",
"2 c #246E2B",
"3 c #2C7324",
"4 c #2A7427",
"5 c #2C7524",
"6 c #2D7425",
"7 c #2F7A25",
"8 c #26722A",
"9 c #23712D",
"0 c #25732C",
"q c #25752E",
"w c #287329",
"e c #2A7528",
"r c #2C7728",
"t c #29782B",
"y c #2C7929",
"u c #307320",
"i c #307722",
"p c #307822",
"a c #217232",
"s c #247330",
"d c #227432",
"f c #257630",
"g c #207335",
"h c #217534",
"j c #207538",
"k c #207C3D",
"l c #5F5625",
"z c #1C3845",
"x c #5F2E5C",
"c c #B56C30",
"v c #21803F",
"b c #928230",
"n c #F09A53",
"m c #932D8B",
"M c #0C98D6",
/* pixels */
"***==*%*******===********==*%***",
"*****===*=******==82*3*****==***",
"*********we**595*4,:,0**********",
"******==pa,,,,.......,a3****===*",
"***==*==e0<<..lbbbbll <8*==*==**",
"****=*8&*q1.lbbbbbbbbl g3==*****",
"*****8>ed< llbbbbbbbbbl 5*******",
"**300,,j1 ooolbbbl  lbb g4******",
"*=8,,0*5s oooolb     lb 4qe*%***",
"*w,a3*34 ooooob       b a0a4****",
"***0,a,0 oooolb       b <,a**%**",
"**%3*5a ooooob   M  M l ,984*=**",
"*****5q olllobX  z  z l 8qa4==**",
"%**5*=i  olllbX       o e=******",
"*32:0*5,   oolXxX     X h3******",
"%$2:a0a, oooollxxxmmmmx fu******",
"**4555a<.bbboolbxxmmmmx  e==****",
"***==ed.bbbbbllbbbbllbb  ==*****",
"*****==.bbbbblllbbbbbbb  **==***",
"*****50.lbbblooobbbbbbb  *******",
"*******=.... ooolbbbbbl =***===*",
"**===***e8   oooo      **==*****",
"****=****4aOOcOcccnncc ***=*****",
"***********OOcOccnnnnc *********",
"4eeeeee5rt.lllllllnncoo 4ryy5ere",
",hh<<y7t11.bbbbbbl  lll 1111,111",
"<e*pp=*30.lbbbbbbo  llll k1<1<<<",
"1,a**3**a.bbbbbbo   llll 111<,,<",
"<,,,a:ep  bbbbbb e   lll <<,,,,,",
"<,8ea4== ccc     ==4 OOO 11<<,,,",
"1<f====  OOO *======      vk11k1",
";;-+##@ nnn  #@##@## Occc ;;;;;;"
};
