/* XPM */
static char *f5d82f0eec9448e199238242db1b0e1btFJyMt2ZSAtstqXq[] = {
/* columns rows colors chars-per-pixel */
"32 32 179 2 ",
"   c #171511",
".  c #141412",
"X  c #181815",
"o  c #191815",
"O  c #191917",
"+  c #1A1917",
"@  c #191A17",
"#  c #1A1A17",
"$  c #1B1919",
"%  c #1A1A18",
"&  c #1B1A18",
"*  c #1B1A19",
"=  c #1B1B19",
"-  c #1B1B1A",
";  c #1B1C19",
":  c #1B1D19",
">  c #1B1E19",
",  c #1B1C1A",
"<  c #1C1C1A",
"1  c #1C1D1A",
"2  c #1C1C1B",
"3  c #1C1D1B",
"4  c #1C1E1A",
"5  c #1C1F1A",
"6  c #1D1E1B",
"7  c #1D1F1B",
"8  c #1C1D1C",
"9  c #1D1D1C",
"0  c #1D1E1D",
"q  c #1C1E1E",
"w  c #1D1E1E",
"e  c #1D1F1E",
"r  c #1D1E1F",
"t  c #1D1F1F",
"y  c #1C201A",
"u  c #1C211A",
"i  c #1D201B",
"p  c #1C221A",
"a  c #1D221B",
"s  c #1D201D",
"d  c #1E201C",
"f  c #1E211C",
"g  c #1E231C",
"h  c #1F231D",
"j  c #1D201F",
"k  c #1E201F",
"l  c #1E211F",
"z  c #1E241C",
"x  c #1F241C",
"c  c #1E251C",
"v  c #1F241D",
"b  c #1E261C",
"n  c #1F261D",
"m  c #1F271D",
"M  c #252716",
"N  c #20251E",
"B  c #20271E",
"V  c #20261F",
"C  c #20291E",
"Z  c #21281F",
"A  c #20291F",
"S  c #21291F",
"D  c #212A1F",
"F  c #212B1F",
"G  c #1E1F20",
"H  c #331E32",
"J  c #1D2020",
"K  c #1E2020",
"L  c #1F2020",
"P  c #1E2120",
"I  c #1E2021",
"U  c #1E2121",
"Y  c #1E2022",
"T  c #1E2122",
"R  c #1F2122",
"E  c #1F2223",
"W  c #1F2323",
"Q  c #1F2224",
"!  c #202020",
"~  c #202121",
"^  c #202122",
"/  c #212122",
"(  c #212123",
")  c #202223",
"_  c #202721",
"`  c #212721",
"'  c #232426",
"]  c #232526",
"[  c #242627",
"{  c #222920",
"}  c #222A20",
"|  c #222B20",
" . c #222922",
".. c #222C20",
"X. c #232C21",
"o. c #232D21",
"O. c #232E21",
"+. c #242E21",
"@. c #242D22",
"#. c #242E22",
"$. c #242F22",
"%. c #252F23",
"&. c #242D25",
"*. c #262F24",
"=. c #272E2A",
"-. c #272E2B",
";. c #26292C",
":. c #272A2C",
">. c #282E2B",
",. c #283226",
"<. c #293327",
"1. c #373A20",
"2. c #2A2D31",
"3. c #2B2E32",
"4. c #2A2E33",
"5. c #2A2F34",
"6. c #2C2F34",
"7. c #2C3035",
"8. c #2C3136",
"9. c #2D3238",
"0. c #30353C",
"q. c #30363D",
"w. c #32373E",
"e. c #47280D",
"r. c #5F5625",
"t. c #1C3845",
"y. c #323941",
"u. c #333941",
"i. c #333942",
"p. c #343B44",
"a. c #353C44",
"s. c #373D46",
"d. c #373E46",
"f. c #373F47",
"g. c #5F2E5C",
"h. c #3A434F",
"j. c #3B444F",
"k. c #3C4553",
"l. c #3C4654",
"z. c #3C4755",
"x. c #3F4754",
"c. c #414A55",
"v. c #414B5A",
"b. c #444D5B",
"n. c #434E5E",
"m. c #495564",
"M. c #4B5667",
"N. c #495669",
"B. c #48576A",
"V. c #4C5869",
"C. c #4D5A6E",
"Z. c #4E5C71",
"A. c #525F71",
"S. c #525F72",
"D. c #536074",
"F. c #516076",
"G. c #516077",
"H. c #556276",
"J. c #556376",
"K. c #526178",
"L. c #526278",
"P. c #53637A",
"I. c #57667A",
"U. c #B56C30",
"Y. c #928230",
"T. c #F09A53",
"R. c #586881",
"E. c #5C6C83",
"W. c #596A84",
"Q. c #5A6C86",
"!. c #5D6E85",
"~. c #5B6D88",
"^. c #617593",
"/. c #647897",
"(. c #647A98",
"). c #657A99",
"_. c #677C9C",
"`. c #932D8B",
"'. c #0C98D6",
/* pixels */
"< < < < < < % % % % % % % % % % % % % % % % % % % % , < < < < < ",
"E E E E E E , @ % % % % % % % % % % % % % % % % % % 9 E E E E E ",
"E E E E E 5.7.[ % % % % % % M M M M M M M % % % % % 9 E E E E E ",
"E E E E E V.!.c.@ % % % M M r.Y.Y.Y.Y.r.r.. % % % % 9 E E E E E ",
", , , @ f.I.E.c.@ % % M r.Y.Y.Y.Y.Y.Y.Y.Y.r.. % % % % % , , , , ",
"K.F.m.m.H.H.b.7.@ % . r.r.Y.Y.Y.Y.Y.Y.Y.Y.Y.r.. @ . j.K.F.K.K.K.",
"~.Q.F.S.S.f.6.' % . 1.1.1.r.Y.Y.Y.r.. . r.Y.Y.. 9.5.Z._.^.W.~.~.",
"l.k.f.f.f.:.9 % % . 1.1.1.1.r.Y.. . . . . r.Y.. ).)./.).R.u.l.l.",
"u.u.w.:.' < % % . 1.1.1.1.1.Y.. . . . . . . Y.. C.v.B.B.n.w.u.u.",
"~ ~ E % @ % % % . 1.1.1.1.r.Y.. . . . . . . Y.. l.w.h.h.p.~ ~ ~ ",
"E E 9 % % % % . 1.1.1.1.1.Y.. . . '.. . '.. r.. 7.2.2.2.:.9 E E ",
"E E E < % % % . 1.r.r.r.1.Y.H . . t.. . t.. r.. ' @ % % % E E E ",
"% 9 E < % % % . . 1.r.r.r.Y.H . . . . . . . 1.. 9 % % % < E 9 % ",
"% E Q < % % % % . . . 1.1.r.H g.H . . . . . H . % % % % < Q E % ",
"% 9 E < % % % % . 1.1.1.1.r.r.g.g.g.`.`.`.`.g.. % % % % < E 9 % ",
"9 9 9 9 < % % % M Y.Y.Y.1.1.r.Y.g.g.`.`.`.`.g.. . % % < 9 9 9 9 ",
"E E E E 9 % % M Y.Y.Y.Y.Y.r.r.Y.Y.Y.Y.r.r.Y.Y.. . % % 9 E E E E ",
"E E E E 9 % % M Y.Y.Y.Y.Y.r.r.r.Y.Y.Y.Y.Y.Y.Y.. . % % 9 E E E E ",
"< < < < , % % M r.Y.Y.Y.r.1.1.1.Y.Y.Y.Y.Y.Y.Y.. . % % , < < < < ",
"% G E < % % % % M M M M . 1.1.1.r.Y.Y.Y.Y.Y.r.. % % % % < E G % ",
"% E Q < % % % % , , . . . 1.1.1.1.. . . . . . % % % % % < Q E % ",
"% 9 9 < % % % , y y < e.e.U.e.U.U.U.T.T.U.U.. % % % % % < 9 9 % ",
"E E y y y , % , , , y e.e.U.e.U.U.T.T.T.T.U.. % % % < y y j E E ",
"Q E A y y < < < < y M r.r.r.r.r.r.r.T.T.U.1.1.. < < y y y ` Q Q ",
"9 j A v | @.| j , < M Y.Y.Y.Y.Y.Y.r.. . r.r.r.. j | @.| N N 9 9 ",
"v v A o.@.A < % % M r.Y.Y.Y.Y.Y.Y.1.. . r.r.r.r.. < o.@.@.N j v ",
"N o.o.o.A v v v < M Y.Y.Y.Y.Y.Y.1.. . . r.r.r.r.. v v A o.o.o.N ",
"% j @.o.A A A v . . Y.Y.Y.Y.Y.Y.. % . . . r.r.r.. A A A o.| j % ",
"~ ~ | A A o.| A . . . . . . . . . v y . . . . . . A A A A ` ~ ~ ",
">.=.o.A | *.<.<.. U.U.U.. . N % v A v y . e.e.e.. @.o.A A *.=.>.",
"v | @.o.o.o.@.. . e.e.e.. | v j v A A A . . . . . . A A o.@.| v ",
"% < o.@.@.@.@.. T.T.T.. . @.o.A | @.@.@.. e.U.U.U.. N , < < < % "
};
