/* XPM */
static char *_246b16f0e404ffd967112b95464ef80ubaPQd3scCjydaRv[] = {
/* columns rows colors chars-per-pixel */
"32 32 181 2 ",
"   c #171511",
".  c #141412",
"X  c #181815",
"o  c #191815",
"O  c #191916",
"+  c #191917",
"@  c #1A1917",
"#  c #191A17",
"$  c #1A1A17",
"%  c #1B1919",
"&  c #1A1A18",
"*  c #1B1A18",
"=  c #1B1A19",
"-  c #1B1B19",
";  c #1B1B1A",
":  c #1B1C19",
">  c #1B1D19",
",  c #1B1E19",
"<  c #1B1C1A",
"1  c #1C1C1A",
"2  c #1C1D1A",
"3  c #1C1C1B",
"4  c #1C1D1B",
"5  c #1C1E1A",
"6  c #1C1F1A",
"7  c #1D1E1B",
"8  c #1D1F1B",
"9  c #1C1D1C",
"0  c #1D1D1C",
"q  c #1D1E1D",
"w  c #1C1E1E",
"e  c #1D1E1E",
"r  c #1D1F1E",
"t  c #1D1E1F",
"y  c #1D1F1F",
"u  c #1C201A",
"i  c #1C211A",
"p  c #1D201B",
"a  c #1C221A",
"s  c #1D221B",
"d  c #1D201D",
"f  c #1E201C",
"g  c #1E211C",
"h  c #1E231C",
"j  c #1F231D",
"k  c #1D201F",
"l  c #1E201F",
"z  c #1E211F",
"x  c #1E241C",
"c  c #1F241C",
"v  c #1E251C",
"b  c #1F241D",
"n  c #1E261C",
"m  c #1F261D",
"M  c #1F271D",
"N  c #252716",
"B  c #20251E",
"V  c #20271E",
"C  c #20261F",
"Z  c #20291E",
"A  c #21281F",
"S  c #20291F",
"D  c #21291F",
"F  c #212A1F",
"G  c #212B1F",
"H  c #1E1F20",
"J  c #331E32",
"K  c #1D2020",
"L  c #1E2020",
"P  c #1F2020",
"I  c #1E2120",
"U  c #1E2021",
"Y  c #1E2121",
"T  c #1E2022",
"R  c #1E2122",
"E  c #1F2122",
"W  c #1F2223",
"Q  c #1F2323",
"!  c #1F2224",
"~  c #202020",
"^  c #202121",
"/  c #202122",
"(  c #212122",
")  c #212123",
"_  c #202223",
"`  c #202721",
"'  c #212721",
"]  c #232426",
"[  c #232526",
"{  c #242627",
"}  c #222920",
"|  c #222A20",
" . c #222B20",
".. c #222922",
"X. c #222C20",
"o. c #232C21",
"O. c #232D21",
"+. c #232E21",
"@. c #242E21",
"#. c #242D22",
"$. c #242E22",
"%. c #242F22",
"&. c #252F23",
"*. c #242D25",
"=. c #262F24",
"-. c #272E2A",
";. c #272E2B",
":. c #26292C",
">. c #272A2C",
",. c #282E2B",
"<. c #282B2F",
"1. c #283226",
"2. c #293327",
"3. c #373A20",
"4. c #2A2D31",
"5. c #2B2E32",
"6. c #2A2E33",
"7. c #2A2F34",
"8. c #2C2F34",
"9. c #2C3035",
"0. c #2C3136",
"q. c #2D3238",
"w. c #30353C",
"e. c #30363D",
"r. c #32373E",
"t. c #47280D",
"y. c #5F5625",
"u. c #1C3845",
"i. c #323941",
"p. c #333941",
"a. c #333942",
"s. c #343B44",
"d. c #353C44",
"f. c #373D46",
"g. c #373E46",
"h. c #373F47",
"j. c #5F2E5C",
"k. c #3A434F",
"l. c #3B444F",
"z. c #3C4553",
"x. c #3C4654",
"c. c #3C4755",
"v. c #3F4754",
"b. c #414A55",
"n. c #414B5A",
"m. c #444D5B",
"M. c #434E5E",
"N. c #495564",
"B. c #4B5667",
"V. c #495669",
"C. c #48576A",
"Z. c #4C5869",
"A. c #4D5A6E",
"S. c #4E5C71",
"D. c #525F71",
"F. c #525F72",
"G. c #536074",
"H. c #516076",
"J. c #516077",
"K. c #556276",
"L. c #556376",
"P. c #526178",
"I. c #526278",
"U. c #53637A",
"Y. c #57667A",
"T. c #B56C30",
"R. c #928230",
"E. c #F09A53",
"W. c #586881",
"Q. c #5C6C83",
"!. c #596A84",
"~. c #5A6C86",
"^. c #5D6E85",
"/. c #5B6D88",
"(. c #617593",
"). c #647897",
"_. c #647A98",
"`. c #657A99",
"'. c #677C9C",
"]. c #932D8B",
"[. c #0C98D6",
/* pixels */
"1 1 1 1 1 1 & & & & & & & & & & & & & & & & & & & & < 1 1 1 1 1 ",
"W W W W W W < # & & & & & & & & & & & & & & & & & & 0 W W W W W ",
"W W W W W 7.9.{ & & & & & & & & & & & & & & & & & & H W W W W W ",
"W W W W W Z.^.b.# & & & & & & & & & & & & & & & & & 0 W W W W W ",
"< < < # h.Y.Q.b.# & & & & & N N N N N N N & & & & & & & < < < < ",
"P.H.N.N.K.K.m.9.# & & & N N y.R.R.R.R.y.y.. & # # . l.P.H.P.P.P.",
"/.~.H.F.F.h.8.] & & & N y.R.R.R.R.R.R.R.R.y.. <.q.4.S.'.(.!././.",
"x.z.h.h.h.>.0 & & & . y.y.R.R.R.R.R.R.R.R.R.y.. `.`.).`.W.p.x.x.",
"p.p.r.>.] 1 & & & . 3.3.3.y.R.R.R.y.. . y.R.R.. A.n.C.C.M.r.p.p.",
"^ ^ W & # & & & & . 3.3.3.3.y.R.. . . . . y.R.. x.r.k.k.s.^ ^ ^ ",
"W W 0 & & & & & . 3.3.3.3.3.R.. . . . . . . R.. 9.4.4.4.>.0 W W ",
"W W W 1 & & & & . 3.3.3.3.y.R.. . . . . . . R.. ] # & & & W W W ",
"& 0 W 1 & & & . 3.3.3.3.3.R.. . . [.. . [.. y.. 0 & & & 1 W 0 & ",
"& W ! 1 & & & . 3.y.y.y.3.R.J . . u.. . u.. y.. & & & & 1 ! W & ",
"& 0 W 1 & & & . . 3.y.y.y.R.J . . . . . . . 3.. & & & & 1 W 0 & ",
"0 0 0 0 1 & & & . . . 3.3.y.J j.J . . . . . J . & & & 1 0 0 0 0 ",
"W W W W 0 & & & . 3.3.3.3.y.y.j.j.j.].].].].j.. & & & 0 W W W W ",
"W W W W 0 & & & N R.R.R.3.3.y.R.j.j.].].].].j.. . & & 0 W W W W ",
"1 1 1 1 < & & N R.R.R.R.R.y.y.R.R.R.R.y.y.R.R.. . & & < 1 1 1 1 ",
"& H W 1 & & & N y.R.R.R.y.3.y.y.R.R.R.R.R.R.R.. . & & & 1 W H & ",
"& W ! 1 & & & & N N N N . 3.3.3.y.R.R.R.R.R.y.. & & & & 1 ! W & ",
"& 0 0 1 & & & < u u . . . 3.3.3.3.. . . . . . & & & & & 1 0 0 & ",
"W W u u u < & < < < u t.t.T.t.T.T.T.E.E.T.T.. & & & 1 u u k W W ",
"! W S u u 1 1 1 1 u u t.t.T.t.T.T.E.E.E.E.T.. & 1 1 u u u ' ! ! ",
"0 k S b  .#. .k < 1 N y.y.y.y.y.y.y.E.E.T.3.3.. k  .#. .B B 0 0 ",
"b b S O.#.S 1 & & & N R.R.R.R.R.R.y.. . y.y.y.. & 1 O.#.#.B k b ",
"B O.O.O.S b b b 1 N y.R.R.R.R.R.R.3.. . y.y.y.y.. b b S O.O.O.B ",
"& k #.O.S S S b < N R.R.R.R.R.R.3.. . . y.y.y.y.. S S S O. .k & ",
"^ ^  .S S O. .S . . . . . . . . . b . . . . . . . S S S S ' ^ ^ ",
",.-.O.S  .=.2.2.. T.T.T.. . . . . S b u . t.t.t.. #.O.S S =.-.,.",
"b  .#.O.O.O.#.. . t.t.t..  .b k b S S S . . . . . . S S O.#. .b ",
"& 1 O.#.#.#.#.. E.E.E.. . #.O.S  .#.#.#.. t.T.T.T.. B < 1 1 1 & "
};
