/* XPM */
static char *_74e396d8a134974e077f62458bdf2cdJkZXCQCx5KxZBUST[] = {
/* columns rows colors chars-per-pixel */
"384 48 12 1 ",
"  c None",
". c #141412",
"X c #242A36",
"o c #551A1C",
"O c #4B3720",
"+ c #3B535E",
"@ c #AE3838",
"# c #825E3A",
"$ c #BD9168",
"% c #5C8EA5",
"& c #ECCBAC",
"* c #8AC6E0",
/* pixels */
"                                                                                                                                                                                                                                                                                                                                                                                                ",
"                                                                                                                                                                                                                                                                                                                                                                                                ",
"                                                                                   ......                                                                                                                                                                                                                                                                                                       ",
"                                                                                 ..$$$$&&..                                                                                                                                                                                                                                                                                                     ",
"                                                                                .##$$&&&&&&.                                                                                                                                                                                                                                                                                                    ",
"                                                                               .###$$&&&&&&&.                                                                                                                                                                                                                                                                                                   ",
"                                                                               .###$$$&&&&&&.                                                                                                                                                                                                                                                                                                   ",
"                                                                               .####$$&&&&&&&.                                                                                                                                                                                                                                                                                                  ",
"                                                                               .######&&&&&&&.                                                                                                                                                                                                                                                                                                  ",
"                                                                               .###O##..#&&&&.                                                                                                                                                                                                                                                                                                  ",
"                                                                               .O#O$##...&&&&.                                                                                                                                                                                                                                                                                                  ",
"                       ........                                                 .#.$&&...&...                                                                                                                                                                                                                                                                                                   ",
"                      .$$&&&&&&.                                                 ..$$&&$&O..O                                                                                                                                                                                                                                                                                                   ",
"                     .$$&&&&&&&&.                                                  O.&&$.#.O                                                                                                                                                                                                                                                                                                    ",
"                     .$$&&&&&&&&.                                                   .O$..#$.                                                   ......                                                                                                                                                                                                                                           ",
"                    .#$$&&&&&&&&&.                                                   ..$$$.                                                  ..$$$&&&..                                                                                                                                                                                                                                         ",
"                   .##$$$&&&&&&&&.                                                     ...                                                  .##$$&&&&&&.                                                                                                                                                                                                                                        ",
"                   .###$$$&&&&&&$.                                                                                                         .###$$&&&&&&&.                                                                                                                                                                                                                                       ",
"                   .#######...$..O                                                                                                         .###$$$&&&&&&&.                                                                                                                                                                                                                                      ",
"                   .O######...&..O                                                                                                         .####$$&&&&&&&.                                                                                                                                                                                                                                      ",
"                   .O###O##..O&O.O                                                                                                         .######&&&&&&&.                                                                                                                                                                                                                                      ",
"                    .O##O$&&&$.#$.                                                                                                         .###O##..&&&&&.                                                                                                                                                                                                                                      ",
"                     .O#.#$&&&.$$.                                                                                                         .O#O$##...$&&&.                                                                                                                                                                                                                                      ",
"                      ....O.O$$#.                                                                                                           .#.$&&...&...                                                  ......                                                                                                                                                                               ",
"                      ....O.O$$#.                                                                                                            ..$$&&$&O..O                                                 .###$$$...                                                                                                                                                                            ",
"                                                                                                                                               O.&&$.#.O                                                 .###$$$&&&&.                                                                                                                                                                           ",
"                                                                                          O....o..                                              .O$.$#$.                                                 .###$$&&&&&&.                                                                                                                                                                          ",
"                        .@@.OO....o.                                                 .@@.O#$$$$oo+.                                              ..$#$.    o..                                          .####$$&&&&&&.                                                                                                                                                                          ",
"                      ...X@@%#$$$$oo.                                              ...X@@%*****%o+.                                                ... .....oo+.                                        .#####$$&&&&&&.                                                                                                                                                                         ",
"                     .%%%+X@%*****%o+.                                             .%%+X@%%%%**+XX+..                                                 OO$$$$%o+...                                      .###O##&&&&&&&.                                                                                                                                                                         ",
"                    .**%%%.X%%%%**+X+.                                            .%%%%.X%%%%***+X+..                                               @.O#****+XX+..                                      .OOOO##..&&&&&.                                                                                                                                                                         ",
"                    .%****.X+%%%**+XX+.                                          .******.X++%%**+...                                              .@@@%*%%***++X+.                                      .#OO##....&&&$.                                                                                                                                                                         ",
"                   .%......XX+%%**+X+..                                          ..%.....XX++...+                                               ...XX@%%%%%***+..                                        ...$&&...$&&.                                                                                                                                                                          ",
"                   .%......XX+%%**+X+..                                          .%.%++..XX......                                               .%%+.XX%%+%%*.+                                            ..&&.&&$$..   .                                                                                                                                                                      ",
"                   ..%%++..XX++...+...                                           ..%.......OO..                                                 %%%%%*.X+++....                                             .&&$.&.....o.+.                                                                                                                                                                     ",
"                     ..............                                                ..  ....                                                     .****..XX....                                               ..$$#...O$$oo+..                                                                                                                                                                    ",
"                         ....OO..                                                                                                              .*%.....XXOOO..                                                .$#$$.$***%oX+..                                           .....                                                                                                                  ",
"                                                                                                                                                ..%++.....                                                    ..#@.**%**+XX+..                                          .OO###.                                                                                                                 ",
"                          @@#....oo.                                                                                                           .%%%.......                                                   ....@%%%%***+...                                          .O######.                                                       ........                                                 ",
"                         .+@+#OO.XoX.                                                                                                           ...                                                         .%%+XX%%%%%**+                                            .O#####$$$.                                                     .$$&&&&&&.                                                ",
"                        .++++##.#XXXX.                                                                                                                                                                      .%%%.*.X+++...+                                           .#####$$$$$.                                                   .$$&&&&&&&&.  O....o..                                     ",
"                        .%%%... .O+++..                                                      ..oo.                                                                                                          .*****.XX+.....                                           ..OO##$$&&$. O....o..                                         .#$$&&&&&&&&&..#$$$$oo+.                                    ",
"                        .....      #..                                                  @@#..O.XoX.                                                                                                        .*%.....XX....                                             .#$###$&&&&. #$$$$oo+.                                       .##$$$&&&&&&&&..*****%o+.                                    ",
"                        .....      #..                                                 .+@+#O.#XXXX.                                                                                                       ...%++....OO                                               O$&###&&&&&..*****%o+.                                       .###$$$&&&&&&$..%%%**+XX+..                                  ",
"                      ..OO        ###....                                             .++++## .O+++.                                                                                                       .%........                                                 .&&...&&&&&..%%%**+XX+..                                     .#######...$..O.%%%***+X+..                                  ",
"                    .$.##O.       .#OO.#.                                            ..%%%...     ... ..                                            @@#....oo.   ... ..                                     ...                                                      .O&&...&&&&&..%%%***+X+..                                     .O######...&..O.++%%**+...oo. ... ..                         ",
"                    .$##..         .OO##.                                           .#.....      .OO..#.                                           .+@+#OO.XoX. .OO..#.                                             @@#....oo.   ... ..                              .$&$O..&&&&&..X++...+OO.XoX ... ..                            .O###O##..O&O.O.X++...+OO.XoX.OO..#.                         ",
"                     ...            .OO.                                            .#OOOO       .##OO#.                                          .++++##.#XXXX..##OO#.                                            .+@+#OO.XoX. .OO..#.                              .$..&&$&&&&&..X......#.#XXX.OO..#.                             .O##O$&&&$.#$.XX......#.#XXX.##OO#.                         "
};
