/* XPM */
static char *_c3e1ab763264660e2175e6e9d932f92sLoQhTcnkqjlAgpb[] = {
/* columns rows colors chars-per-pixel */
"128 32 12 1 ",
"  c None",
". c #141412",
"X c #242A36",
"o c #551A1C",
"O c #4B3720",
"+ c #3B535E",
"@ c #AE3838",
"# c #825E3A",
"$ c #BD9168",
"% c #5C8EA5",
"& c #ECCBAC",
"* c #8AC6E0",
/* pixels */
"                                                                                                                                ",
"                                                                                                                                ",
"          ........                                                                                                              ",
"         .$$&&&&&&.                                                                                       ........              ",
"        .$$&&&&&&&&.                      ........                        ........                       .$$&&&&&&.             ",
"       .#$$&&&&&&&&&.                    .$$&&&&&&.                      .$$&&&&&&.                     .$$&&&&&&&&.            ",
"      .##$$$&&&&&&&&.                   .$$&&&&&&&&.                    .$$&&&&&&&&.                   .#$$&&&&&&&&&.           ",
"      .###$$$&&&&&&$.                  .#$$&&&&&&&&&.                  .#$$&&&&&&&&&.                 .##$$$&&&&&&&&.           ",
"      .#######...$..O                 .##$$$&&&&&&&&.                 .##$$&&&&&&&&&.                 .###$$$&&&&&&$.           ",
"      .O######...&..O                 .###$$$&&&&&&$.                 .###$$&&&&&&&&.                 .#######...$..O           ",
"      .O###O##..O&O.O                 .#######...$..O                 .#####$&&&&&&$.                 .O######...&..O           ",
"       .O##O$&&&$.#$.                 .O######...&..O                 .O######...$..O                 .O###O##..O&O.O           ",
"        .O#.#$&&&.$$.                 .O###O##..O&O.O                 .O###O##...&..O                  .O##O$&&&$.#$.           ",
"         ....O.O$$#.                   .O##O$&&&$.#$.                  .O##O$#..O&O.O                   .O#.#$&&&.$$.           ",
"         .@@.OO....o.                   .O#.#$&&&.$$.                   .O#.#&&&$.#$.                    ....O.O$$#.            ",
"       ...X@@%#$$$$oo.                   ....O.O$$#.                     ....$&&&.$$.                    .@@.OO....o            ",
"      .%%%+X@%*****%o+.                  .@@.OO....o.                    .@....O$$#.                    ...@@%#$$$$o.           ",
"     .**%%%.X%%%%**+X+.                ...X@@%#$$$$oo.                  ...@@%#$$$$o.                  ...XX@%*****%o.          ",
"     .%****.X+%%%**+XX+.              .%%%+X@%*****%o+.                ...XX@%*****%o.                .%%%+.X%%%%**+o+.         ",
"    .%......XX+%%**+X+..             .**%%%.X%%%%**+X+.               .%%%+.X%%%%**+o+.              .**%%%.X+%%%**+X++.        ",
"    ..%%++..XX++...+...              .%****.X+%%%**+XX+.             .**%%%.X+%%%**+X++.            .%%****.XX+%%**+XX..        ",
"      ..............                .%......XX+%%**+X+..            .%%****.XX+%%**+XX..            ..%%++..XX++...+...         ",
"          ....OO..                  ..%%++..XX++...+...             ..%%++..XX++...+...               ..............            ",
"          @@#....oo.                  ..............                  ..............                      @@#....oo.            ",
"         .+@+#OO.XoX.                     @@#....oo.                      @@#....oo.                     .+@+#OO.XoX.           ",
"        .++++##.#XXXX.                   .+@+#OO.XoX.                    .+@+#OO.XoX.                   .++++##.#XXXX.          ",
"        .%%%... .O+++.                  .++++##.#XXXX.                  .++++##.#XXXX.                  .%%%... .O+++.          ",
"        .....   .O##.                   .%%%... .O+++.                  .%%%... .O+++.                  .....   .O##.           ",
"        .OO.     .##.                   .....   .O##.                   .....   .O##.                   .OO.     .##.           ",
"       .##O.     .OO.                  .##O.     .OO.                  .##O.     .OO.                  .##O.     .OO.           ",
"       .##.      .OO.                  .##.      .OO.                  .##.      .OO.                  .##.      .OO.           ",
"      .$$#.      .O##.                .$$#.      .O##.                .$$#.      .O##.                .$$#.      .O##.          "
};
